<svg width="48" height="48" viewBox="0 0 48 48" fill="none" xmlns="http://www.w3.org/2000/svg">
<path d="M13.1666 26.6667V37.3333H7.83331V42.6667H15.8333V48H21.1666V42.6667H26.5V48H31.8333V42.5307C37.0813 41.8667 41.1666 37.424 41.1666 32C41.1666 28.48 39.4333 25.376 36.7933 23.432C38.7402 21.448 39.8317 18.7797 39.8333 16C39.8333 11.0453 36.4226 6.904 31.8333 5.712V0H26.5V5.33333H21.1666V0H15.8333V5.33333H7.83331V10.6667H13.1666V26.6667ZM30.5 37.3333H18.5V26.6667H30.5C33.4413 26.6667 35.8333 29.0587 35.8333 32C35.8333 34.9413 33.4413 37.3333 30.5 37.3333ZM18.5 10.6667H29.1666C32.108 10.6667 34.5 13.0587 34.5 16C34.5 18.9413 32.108 21.3333 29.1666 21.3333H18.5V10.6667Z" fill="white"/>
</svg>
