<svg width="100" height="100" viewBox="0 0 100 100" fill="none" xmlns="http://www.w3.org/2000/svg">
<path d="M90.2174 3.26093H9.78262C4.38848 3.26093 0 7.6494 0 13.0435V86.9566C0 92.3508 4.38848 96.7393 9.78262 96.7393H90.2174C95.6115 96.7393 100 92.3508 100 86.9566V13.0435C100 7.6494 95.6115 3.26093 90.2174 3.26093ZM26.0869 90.2174H9.78262C7.98457 90.2174 6.52168 88.7545 6.52168 86.9564V35.8695H26.0869V90.2174ZM93.4783 86.9564C93.4783 88.7545 92.0154 90.2174 90.2174 90.2174H32.6088V35.8695H93.4783V86.9564ZM93.4783 29.3478H6.52168V13.0435C6.52168 11.2455 7.98457 9.78261 9.78262 9.78261H90.2174C92.0154 9.78261 93.4783 11.2455 93.4783 13.0435V29.3478Z" fill="white"/>
<path d="M16.3043 22.8262C18.1053 22.8262 19.5652 21.3662 19.5652 19.5652C19.5652 17.7643 18.1053 16.3043 16.3043 16.3043C14.5033 16.3043 13.0434 17.7643 13.0434 19.5652C13.0434 21.3662 14.5033 22.8262 16.3043 22.8262Z" fill="white"/>
<path d="M29.3479 22.8262C31.1488 22.8262 32.6088 21.3662 32.6088 19.5652C32.6088 17.7643 31.1488 16.3043 29.3479 16.3043C27.5469 16.3043 26.0869 17.7643 26.0869 19.5652C26.0869 21.3662 27.5469 22.8262 29.3479 22.8262Z" fill="white"/>
<path d="M42.3912 22.8262C44.1922 22.8262 45.6522 21.3662 45.6522 19.5652C45.6522 17.7643 44.1922 16.3043 42.3912 16.3043C40.5903 16.3043 39.1303 17.7643 39.1303 19.5652C39.1303 21.3662 40.5903 22.8262 42.3912 22.8262Z" fill="white"/>
<path d="M83.6957 46.739H42.3912C40.5904 46.739 39.1303 48.199 39.1303 50C39.1303 51.8008 40.5902 53.2609 42.3912 53.2609H83.6955C85.4963 53.2609 86.9565 51.801 86.9565 50C86.9565 48.1992 85.4965 46.739 83.6957 46.739Z" fill="white"/>
<path d="M83.6957 59.7826H42.3912C40.5904 59.7826 39.1303 61.2426 39.1303 63.0435C39.1303 64.8445 40.5902 66.3045 42.3912 66.3045H83.6955C85.4963 66.3045 86.9565 64.8445 86.9565 63.0435C86.9565 61.2426 85.4965 59.7826 83.6957 59.7826Z" fill="white"/>
<path d="M83.6957 72.8262H42.3912C40.5904 72.8262 39.1303 74.2861 39.1303 76.0871C39.1303 77.8879 40.5902 79.348 42.3912 79.348H83.6955C85.4963 79.348 86.9565 77.8881 86.9565 76.0871C86.9565 74.2861 85.4965 72.8262 83.6957 72.8262Z" fill="white"/>
</svg>
