<svg width="48" height="48" viewBox="0 0 48 48" fill="none" xmlns="http://www.w3.org/2000/svg">
<g clip-path="url(#clip0_187_1405)">
<path d="M26.1211 21.0008V10.3354C28.4026 10.7202 30.5539 11.6564 32.3931 13.0623C32.7598 13.3138 33.19 13.4502 33.6354 13.4562C35.0625 13.4562 36.226 12.3078 36.2411 10.8807C36.2441 10.2687 36.0048 9.68091 35.5746 9.24459C32.9173 6.96907 29.5843 5.62684 26.0908 5.42687V1.85149C26.0908 0.830355 25.2636 0.00319059 24.2425 0.00319059C24.2213 0.000190558 24.2 0.000190558 24.1788 0.000190558C23.1426 -0.0149971 22.2882 0.812261 22.273 1.85149V5.30565C15.4556 5.79043 10.8198 10.0021 10.8198 15.6075C10.8198 22.4854 16.6676 24.3944 22.273 25.9093V38.0291C19.3157 37.6322 16.5282 36.4051 14.2436 34.4841C13.8134 34.1417 13.28 33.9509 12.7286 33.9388C11.3318 34.0357 10.2562 35.2053 10.2743 36.6051C10.2713 37.2171 10.5106 37.805 10.9408 38.2413C14.0708 41.0592 18.0946 42.6802 22.3032 42.8165V46.1495C22.3032 46.1706 22.3062 46.1919 22.3062 46.2131C22.3546 47.2493 23.2364 48.0492 24.2726 47.9978C25.2937 47.9978 26.1209 47.1706 26.1209 46.1495V42.756C34.3926 42.2106 37.7256 37.1809 37.7256 31.8481C37.7258 24.6974 31.7265 22.5158 26.1211 21.0008ZM22.3034 20.0312C19.0007 19.0616 16.4253 18.0618 16.4253 15.2439C16.4253 12.426 18.7584 10.3959 22.3034 10.1233V20.0312ZM26.1211 38.0897V27.0607C29.545 28.0303 32.2112 29.3332 32.181 32.5146C32.181 34.8174 30.6054 37.5443 26.1211 38.0897Z" fill="white"/>
</g>
<defs>
<clipPath id="clip0_187_1405">
<rect width="48" height="48" fill="white"/>
</clipPath>
</defs>
</svg>
