<svg width="48" height="48" viewBox="0 0 48 48" fill="none" xmlns="http://www.w3.org/2000/svg">
<g clip-path="url(#clip0_187_1462)">
<path d="M6.6048 16.8C9.6672 7.068 18.768 0 29.5056 0C36.6072 0 42.9912 3.0888 47.388 7.9992C48.2712 8.9856 48.1872 10.5048 47.2008 11.388C46.2144 12.2712 44.6952 12.1872 43.812 11.2008C40.2936 7.2744 35.1864 4.8 29.5056 4.8C21.4536 4.8 14.5536 9.7656 11.7024 16.8H21.6C22.9248 16.8 24 17.8752 24 19.2C24 20.5248 22.9248 21.6 21.6 21.6H10.4544C10.356 22.3872 10.3056 23.1864 10.3056 24C10.3056 24.8136 10.356 25.6128 10.4544 26.4H21.6C22.9248 26.4 24 27.4752 24 28.8C24 30.1248 22.9248 31.2 21.6 31.2H11.7024C14.5536 38.2344 21.4536 43.2 29.5056 43.2C35.1864 43.2 40.2936 40.7256 43.812 36.7992C44.6952 35.8128 46.2144 35.7288 47.2008 36.612C48.1872 37.4952 48.2712 39.0144 47.388 40.0008C42.9912 44.9112 36.6072 48 29.5056 48C18.768 48 9.6672 40.932 6.6048 31.2H2.4C1.0752 31.2 0 30.1248 0 28.8C0 27.4752 1.0752 26.4 2.4 26.4H5.62321C5.54641 25.6104 5.50562 24.8088 5.50562 24C5.50562 23.1912 5.54641 22.3896 5.62321 21.6H2.4C1.0752 21.6 0 20.5248 0 19.2C0 17.8752 1.0752 16.8 2.4 16.8H6.6048Z" fill="white"/>
</g>
<defs>
<clipPath id="clip0_187_1462">
<rect width="48" height="48" fill="white"/>
</clipPath>
</defs>
</svg>
