<svg
	width="18"
	height="18"
	viewBox="0 0 18 18"
	fill="none"
	xmlns="http://www.w3.org/2000/svg"
>
	<path
		d="M0.416189 4.95878C-0.131435 4.42163 -0.139704 3.54248 0.39772 2.99514C0.935143 2.44779 1.81475 2.43953 2.36237 2.97668L15.2527 15.6204C15.8003 16.1575 15.8086 17.0367 15.2711 17.584C14.7337 18.1314 13.8541 18.1396 13.3065 17.6025L0.416189 4.95878Z"
		fill="#313536"
	/>
	<path
		d="M6.53957 3.18291C5.99194 2.64576 5.98367 1.7666 6.5211 1.21926C7.05852 0.671917 7.93813 0.663653 8.48575 1.2008L16.914 9.46784C17.4616 10.005 17.4699 10.8841 16.9325 11.4315C16.3951 11.9788 15.5155 11.9871 14.9678 11.4499L6.53957 3.18291Z"
		fill="#313536"
	/>
	<path
		d="M13.6545 2.37962C13.1069 1.84247 13.0986 0.963319 13.636 0.415976C14.1735 -0.131367 15.0531 -0.139632 15.6007 0.397516L17.5838 2.3427C18.1314 2.87985 18.1397 3.759 17.6023 4.30635C17.0649 4.85369 16.1853 4.86195 15.6376 4.32481L13.6545 2.37962Z"
		fill="#313536"
	/>
</svg>