<svg width="100" height="100" viewBox="0 0 100 100" fill="none" xmlns="http://www.w3.org/2000/svg">
<path d="M50 0C30.0303 0 13.7838 16.2465 13.7838 36.216C13.7838 60.9988 46.1937 97.3814 47.5736 98.9182C48.8697 100.362 51.1326 100.359 52.4264 98.9182C53.8062 97.3814 86.2162 60.9988 86.2162 36.216C86.2158 16.2465 69.9695 0 50 0ZM50 91.7439C39.0924 78.7873 20.3057 53.225 20.3057 36.2164C20.3057 19.8426 33.6264 6.52187 50 6.52187C66.3736 6.52187 79.6943 19.8426 79.6943 36.2162C79.6941 53.2256 60.9103 78.7832 50 91.7439Z" fill="white"/>
<path d="M50 17.9949C39.9527 17.9949 31.7789 26.1689 31.7789 36.2162C31.7789 46.2635 39.9529 54.4375 50 54.4375C60.0471 54.4375 68.2209 46.2635 68.2209 36.2162C68.2209 26.1689 60.0471 17.9949 50 17.9949ZM50 47.9156C43.5488 47.9156 38.3008 42.6674 38.3008 36.2162C38.3008 29.765 43.549 24.5168 50 24.5168C56.451 24.5168 61.6992 29.765 61.6992 36.2162C61.6992 42.6674 56.451 47.9156 50 47.9156Z" fill="white"/>
</svg>
