<svg width="100" height="100" viewBox="0 0 100 100" fill="none" xmlns="http://www.w3.org/2000/svg">
<path d="M85.1249 11.5625C83.5806 10.0119 81.7443 8.78266 79.7222 7.94591C77.7 7.10915 75.5321 6.68144 73.3437 6.6875H59.9999V3.34375C59.9999 2.45693 59.6476 1.60644 59.0205 0.979362C58.3935 0.352287 57.543 0 56.6562 0H43.3437C42.4568 0 41.6063 0.352287 40.9793 0.979362C40.3522 1.60644 39.9999 2.45693 39.9999 3.34375V6.65625H26.6562C24.4662 6.65625 22.2977 7.08811 20.2749 7.92712C18.252 8.76612 16.4144 9.99581 14.8673 11.5458C13.3203 13.0958 12.094 14.9356 11.2588 16.9601C10.4236 18.9845 9.9958 21.1538 9.99991 23.3438V83.3438C10.0082 87.7587 11.7657 91.9905 14.8875 95.1124C18.0094 98.2342 22.2412 99.9917 26.6562 100H73.3437C77.7586 99.9917 81.9904 98.2342 85.1123 95.1124C88.2341 91.9905 89.9916 87.7587 89.9999 83.3438V23.3438C90.0077 21.1551 89.5808 18.9866 88.7439 16.9642C87.9071 14.9418 86.6769 13.1057 85.1249 11.5625ZM53.3437 6.65625V16.6562H46.6562V6.65625H53.3437ZM83.3437 83.3125C83.3437 84.6257 83.085 85.9261 82.5825 87.1393C82.0799 88.3526 81.3433 89.455 80.4147 90.3836C79.4861 91.3121 78.3838 92.0488 77.1705 92.5513C75.9572 93.0538 74.6569 93.3125 73.3437 93.3125H26.6562C24.004 93.3125 21.4605 92.2589 19.5851 90.3836C17.7097 88.5082 16.6562 85.9647 16.6562 83.3125V23.3438C16.6562 20.6916 17.7097 18.148 19.5851 16.2727C21.4605 14.3973 24.004 13.3438 26.6562 13.3438H39.9999V16.6562H33.3437V23.3438H66.6562V16.6562H59.9999V13.3438H73.3437C74.6569 13.3438 75.9572 13.6024 77.1705 14.105C78.3838 14.6075 79.4861 15.3441 80.4147 16.2727C81.3433 17.2013 82.0799 18.3037 82.5825 19.5169C83.085 20.7302 83.3437 22.0305 83.3437 23.3438V83.3125Z" fill="white"/>
<path d="M29.9059 37L27.2184 34.375L22.4996 39.0312L27.5309 44.0625C28.1575 44.6865 29.0059 45.0368 29.8903 45.0368C30.7746 45.0368 31.623 44.6865 32.2496 44.0625L40.6246 35.6875L35.9371 30.9687L29.9059 37Z" fill="white"/>
<path d="M23.3434 75.0312H36.6872V81.6874H23.3434V75.0312Z" fill="white"/>
<path d="M23.3434 55.0312H36.6872V61.6875H23.3434V55.0312Z" fill="white"/>
<path d="M46.6558 75.0312H76.6558V81.6874H46.6558V75.0312Z" fill="white"/>
<path d="M46.6558 55.0312H76.6558V61.6875H46.6558V55.0312Z" fill="white"/>
<path d="M47 35H77V41.6563H47V35Z" fill="white"/>
</svg>
