<svg width="80" height="80" viewBox="0 0 80 80" fill="none" xmlns="http://www.w3.org/2000/svg">
<path d="M71.475 10.725C70.6999 10.0739 69.7621 9.64613 68.7623 9.48758C67.7626 9.32902 66.7385 9.44567 65.8 9.825L8.52496 32.75C7.69006 33.0968 6.97662 33.6832 6.47471 34.4352C5.97281 35.1871 5.70496 36.0709 5.70496 36.975C5.70496 37.8791 5.97281 38.7629 6.47471 39.5148C6.97662 40.2668 7.69006 40.8532 8.52496 41.2L12.225 42.725C12.835 42.9831 13.5225 42.9885 14.1366 42.7401C14.7506 42.4916 15.241 42.0097 15.5 41.4C15.627 41.0964 15.6929 40.7707 15.6937 40.4416C15.6946 40.1125 15.6305 39.7864 15.5051 39.4822C15.3797 39.1779 15.1954 38.9014 14.9628 38.6685C14.7303 38.4356 14.4541 38.2509 14.15 38.125L11.4 37L67.675 14.5C67.7615 14.447 67.861 14.4189 67.9625 14.4189C68.0639 14.4189 68.1634 14.447 68.25 14.5C68.3316 14.5693 68.3931 14.6591 68.4283 14.7603C68.4635 14.8614 68.4709 14.97 68.45 15.075L58.175 63.025C58.1413 63.1958 58.0636 63.3548 57.9496 63.4863C57.8356 63.6179 57.6892 63.7174 57.525 63.775C57.3638 63.839 57.1885 63.8588 57.0171 63.8324C56.8457 63.806 56.6845 63.7344 56.55 63.625L36.55 48.025L56.125 28.25C56.5431 27.8162 56.7905 27.2459 56.8216 26.6441C56.8527 26.0424 56.6655 25.4496 56.2943 24.975C55.9231 24.5003 55.3929 24.1757 54.8014 24.0609C54.2099 23.9461 53.5968 24.0487 53.075 24.35L24.375 41.35C24.0562 41.4941 23.7712 41.7034 23.5384 41.9645C23.3057 42.2257 23.1303 42.5327 23.0236 42.8659C22.9169 43.199 22.8814 43.5508 22.9192 43.8986C22.9571 44.2463 23.0675 44.5823 23.2433 44.8847C23.4191 45.1871 23.6564 45.4493 23.9399 45.6542C24.2234 45.8591 24.5468 46.0023 24.8891 46.0744C25.2313 46.1466 25.585 46.146 25.927 46.0729C26.2691 45.9998 26.5921 45.8558 26.875 45.65L38.95 38.525L33.075 44.5C32.5375 45.005 32.1184 45.6226 31.8477 46.3086C31.577 46.9946 31.4614 47.732 31.5092 48.4679C31.557 49.2038 31.767 49.9201 32.1241 50.5653C32.4813 51.2105 32.9767 51.7688 33.575 52.2L53.575 67.575C54.6276 68.3874 55.9203 68.8271 57.25 68.825C57.958 68.8199 58.6599 68.693 59.325 68.45C60.28 68.1072 61.1309 67.5248 61.7963 66.7588C62.4617 65.9927 62.9192 65.0686 63.125 64.075L73.325 16.175C73.5415 15.1842 73.4836 14.1532 73.1576 13.1928C72.8316 12.2325 72.2499 11.3792 71.475 10.725Z" fill="white"/>
</svg>
