<svg width="80" height="80" viewBox="0 0 80 80" fill="none" xmlns="http://www.w3.org/2000/svg">
<path d="M46.6998 32.7543H43.2508C43.2508 28.939 41.8931 27.5814 38.0779 27.5814V24.133C43.79 24.133 46.6998 27.0427 46.6998 32.7543Z" fill="white"/>
<path d="M53.5965 32.7543H50.1482C50.1482 25.0814 45.7513 20.684 38.0779 20.684V17.2356C47.6482 17.2356 53.5965 23.1845 53.5965 32.7543Z" fill="white"/>
<path d="M60.4939 32.7542H57.0456C57.0456 21.4171 49.415 13.7872 38.0779 13.7872V10.3382C51.4843 10.3382 60.4939 19.3478 60.4939 32.7542Z" fill="white"/>
<path d="M20.8353 79.9998V68.1025L17.1495 67.6712C8.33378 66.5933 1.43702 59.3518 0.746839 50.4502C0.359125 45.1908 0.143799 39.8026 0.143799 34.4788C0.143799 29.155 0.359125 23.7882 0.746839 18.5073C1.43702 9.60571 8.46323 2.34207 17.4514 1.24271C31.1382 -0.414235 44.9746 -0.414235 58.6621 1.24271C67.6711 2.34207 74.6979 9.60571 75.3875 18.5073C75.7973 23.7661 75.9911 29.155 75.9911 34.4788C75.9911 39.8026 75.7758 45.1908 75.3875 50.4502C74.7194 59.3297 67.822 66.5719 59.0283 67.6712C52.8704 68.4328 46.6752 68.8571 40.4705 68.943L20.8353 79.9998ZM38.0779 3.44143C31.3276 3.4427 24.583 3.85314 17.882 4.66962C10.511 5.57512 4.75595 11.5026 4.19585 18.7877C3.78604 23.9606 3.59218 29.2408 3.59218 34.4788C3.59218 39.7161 3.78604 45.0184 4.19585 50.1913C4.75911 57.4612 10.3481 63.3376 17.5808 64.2658C19.2902 64.4811 21.0077 64.668 22.7316 64.8259L24.3052 64.9768V74.1159L39.5656 65.5161H39.9962C46.2224 65.4466 52.4397 65.0292 58.6185 64.2658C65.7963 63.3824 71.3998 57.4549 71.9605 50.2127C72.3697 45.0399 72.5642 39.7375 72.5642 34.5002C72.5642 29.2623 72.3697 23.9821 71.9605 18.7877C71.3998 11.5026 65.6454 5.57512 58.2523 4.66962C51.5582 3.85504 44.8212 3.44459 38.0779 3.44143Z" fill="white"/>
<path d="M44.8458 56.8942H43.2507C27.0855 56.8942 13.9379 43.7466 13.9379 27.5814V25.9863C13.9297 23.2357 15.024 20.5962 16.9771 18.6583L18.3998 17.2356C20.6193 15.0154 24.499 15.0154 26.7192 17.2356L31.1811 21.6975C32.2887 22.7974 32.9094 24.2959 32.905 25.8569C32.8999 27.4165 32.2804 28.9112 31.1811 30.0169L30.7713 30.4267C29.927 31.2735 29.454 32.4208 29.4566 33.6162C29.461 34.8109 29.9333 35.9557 30.7713 36.8063L34.0043 40.0394C35.6859 41.7209 38.7245 41.7209 40.406 40.0394L40.8152 39.6302C43.0354 37.41 46.9151 37.41 49.1353 39.6302L53.5965 44.1129C55.8937 46.4107 55.8937 50.1351 53.5965 52.4329L52.1745 53.8556C50.2365 55.8081 47.597 56.9024 44.8458 56.8942ZM22.5592 18.9601C21.9132 18.9588 21.2925 19.2146 20.8353 19.6711L19.4126 21.0938C18.1093 22.3876 17.3793 24.15 17.3863 25.9863V27.5814C17.3983 41.8611 28.9716 53.4338 43.2507 53.4458H44.8458C46.6751 53.4477 48.4287 52.7177 49.7168 51.4201L51.1395 49.9974C51.5979 49.5402 51.8549 48.9201 51.8549 48.2729C51.8549 47.6257 51.5979 47.0056 51.1395 46.5484L46.6997 42.0872C45.7336 41.1671 44.2169 41.1671 43.2507 42.0872L42.8415 42.4963C39.7278 45.6075 34.6825 45.6075 31.5688 42.4963L28.3357 39.2633C26.8449 37.7617 26.0082 35.7322 26.0082 33.6162C26.005 31.5065 26.8423 29.482 28.3357 27.9912L28.7456 27.5814C29.1996 27.1223 29.4553 26.5028 29.4566 25.8569C29.4578 25.2109 29.2021 24.5902 28.7456 24.133L24.2837 19.6711C23.8259 19.2146 23.2058 18.9588 22.5592 18.9601Z" fill="white"/>
</svg>
