<svg width="100" height="100" viewBox="0 0 100 100" fill="none" xmlns="http://www.w3.org/2000/svg">
<g clip-path="url(#clip0_170_437)">
<path d="M98.4397 50.4935C96.9512 49.6415 95.0508 50.1423 94.1827 51.6096L86.1561 47.0144L86.8549 45.8142C89.135 41.897 87.7766 36.8707 83.827 34.6091L25.2885 1.09506C24.0371 0.378642 22.6121 0 21.1672 0C18.2112 0 15.4606 1.56977 13.9891 4.09709L1.10668 26.2234C-1.17398 30.1403 0.184218 35.1669 4.13422 37.4285L31.8409 53.2912V70.4261H18.9045C17.4653 63.7932 11.5075 58.8054 4.39457 58.8054C2.66879 58.8054 1.26957 60.1929 1.26957 61.9043V85.1458C1.26957 86.8573 2.66879 88.2446 4.39457 88.2446C11.5073 88.2446 17.4651 83.2568 18.9045 76.6239H34.9661C36.6918 76.6239 38.0911 75.2366 38.0911 73.525V56.8694L62.6731 70.9431C63.9243 71.6593 65.3493 72.0379 66.794 72.0379C69.7502 72.0379 72.5008 70.4682 73.9725 67.9407L74.3916 67.2208L82.5159 71.8722C82.1672 73.1896 82.727 74.6265 83.9737 75.3402C84.4659 75.622 85.0032 75.7558 85.5332 75.7558C86.6133 75.7558 87.6637 75.1999 88.2426 74.2058L89.3916 72.2322C89.3918 72.2318 89.3922 72.2314 89.3924 72.2309C89.3926 72.2307 89.3926 72.2303 89.3928 72.2299L99.5834 54.7267C100.447 53.2447 99.9344 51.3493 98.4397 50.4935ZM7.51977 81.4639V65.5863C10.7178 66.8286 12.9885 69.9189 12.9885 73.525C12.9885 77.1313 10.7176 80.2217 7.51977 81.4639ZM66.794 65.8402C66.4399 65.8402 66.1047 65.7513 65.7979 65.5757L7.25941 32.0612C6.31039 31.5176 5.97133 30.2635 6.51937 29.3222L19.4016 7.19614C19.7602 6.58005 20.4368 6.19754 21.1672 6.19754C21.5215 6.19754 21.8567 6.28663 22.1635 6.46229L80.702 39.9767C81.6512 40.5202 81.9901 41.7746 81.4422 42.7157L79.183 46.5961C79.1823 46.5972 79.1815 46.5982 79.1809 46.5994C79.1803 46.6005 79.1797 46.6017 79.1791 46.6029L70.5432 61.4356C70.5428 61.4365 70.542 61.4373 70.5415 61.4383C70.5409 61.4392 70.5407 61.4402 70.5401 61.4412L68.56 64.842C68.2012 65.4575 67.5247 65.8402 66.794 65.8402ZM83.0311 52.3818L91.0567 56.9767L85.5422 66.4484L77.5166 61.8533L83.0311 52.3818ZM38.3842 25.9052C37.8055 26.8993 36.7549 27.4552 35.675 27.4552C35.145 27.4552 34.6077 27.3213 34.1155 27.0395L24.9407 21.7868C23.4459 20.9311 22.934 19.0359 23.7969 17.5537C24.6596 16.0717 26.5709 15.564 28.0657 16.4195L37.2405 21.6723C38.735 22.528 39.2471 24.4231 38.3842 25.9052Z" fill="white"/>
</g>
<defs>
<clipPath id="clip0_170_437">
<rect width="100" height="100" fill="white"/>
</clipPath>
</defs>
</svg>
