<svg width="100" height="100" viewBox="0 0 100 100" fill="none" xmlns="http://www.w3.org/2000/svg">
<g clip-path="url(#clip0_170_440)">
<path d="M85.3553 14.6447C75.9115 5.20078 63.3555 0 50 0C36.6445 0 24.0883 5.20078 14.6447 14.6445C5.20078 24.0883 0 36.6445 0 50C0 63.3555 5.20078 75.9115 14.6447 85.3553C24.0883 94.799 36.6445 99.9998 50 99.9998C63.3557 99.9998 75.9115 94.799 85.3555 85.3551C94.799 75.9115 100 63.3553 100 49.9998C100 36.6443 94.799 24.0883 85.3553 14.6447ZM18.7922 18.7922C23.1889 14.3955 28.3504 11.042 33.9762 8.85312C32.4777 10.7238 31.0756 12.874 29.7906 15.2924C28.2982 18.101 27.0105 21.1855 25.9381 24.4803C22.2229 23.8637 18.7805 23.1055 15.7051 22.2156C16.6689 21.0309 17.6973 19.8871 18.7922 18.7922ZM12.1541 27.2627C15.7512 28.4145 19.8648 29.3857 24.3535 30.1551C23.1035 35.4609 22.3678 41.1705 22.1922 47.0674H5.96406C6.425 39.9906 8.55039 33.2367 12.1541 27.2627ZM11.8348 72.1949C8.42559 66.3553 6.41113 59.7963 5.96387 52.9326H22.2033C22.3951 58.6609 23.1162 64.2082 24.324 69.3752C19.7432 70.1178 15.5262 71.0645 11.8348 72.1949ZM18.7922 81.2078C17.5461 79.9615 16.3855 78.6529 15.3096 77.2908C18.4977 76.4068 22.0617 75.6582 25.8982 75.0578C26.9783 78.3982 28.2799 81.5236 29.7904 84.3668C31.1908 87.0022 32.7305 89.3178 34.3822 91.3014C28.599 89.1172 23.2945 85.7098 18.7922 81.2078ZM47.0672 93.3818C42.6125 92.134 38.3984 88.066 34.9703 81.6145C33.7713 79.3582 32.7182 76.8967 31.816 74.2732C36.6461 73.7416 41.7857 73.4273 47.0672 73.3535V93.3818ZM47.0672 67.4877C41.2102 67.5676 35.5014 67.9354 30.1551 68.5633C28.9758 63.6881 28.2662 58.4113 28.0715 52.9328H47.0674V67.4877H47.0672ZM47.0672 47.0672H28.0604C28.2383 41.4355 28.9592 36.0115 30.1752 31.0123C35.4873 31.6764 41.1842 32.0803 47.0672 32.1959V47.0672ZM47.0672 26.3297C41.7652 26.2229 36.6369 25.8771 31.841 25.3131C32.7377 22.717 33.7826 20.2803 34.9703 18.0445C38.3982 11.593 42.6125 7.525 47.0672 6.27715V26.3297ZM88.0307 27.5742C91.5217 33.4713 93.5828 40.1131 94.0363 47.0672H77.8082C77.6346 41.2383 76.9129 35.5928 75.6891 30.3393C80.2072 29.6096 84.3719 28.6812 88.0307 27.5742ZM81.2076 18.7922C82.3852 19.9697 83.4852 21.2041 84.5111 22.4855C81.3719 23.3428 77.876 24.0703 74.1197 24.6559C73.0361 21.2949 71.7285 18.151 70.2096 15.2924C68.9246 12.874 67.5225 10.7238 66.024 8.85312C71.6494 11.042 76.8111 14.3955 81.2076 18.7922ZM52.9328 52.9328H71.9287C71.7326 58.4539 71.0135 63.7707 69.8174 68.6773C64.5061 68.017 58.8117 67.6168 52.9328 67.5043V52.9328ZM52.9328 47.0672V32.2154C58.7932 32.1385 64.5064 31.7738 69.8578 31.1482C71.0541 36.1098 71.7633 41.4865 71.9396 47.0672H52.9328ZM52.9324 6.27715H52.9326C57.3873 7.525 61.6014 11.593 65.0295 18.0445C66.2361 20.3154 67.2953 22.7941 68.2014 25.4367C63.3648 25.9664 58.2193 26.2783 52.9324 26.3496V6.27715ZM52.9328 93.3818V73.3705C58.2297 73.4744 63.3541 73.817 68.1482 74.3775C67.2539 76.9619 66.2125 79.3881 65.0297 81.6145C61.6016 88.066 57.3875 92.134 52.9328 93.3818ZM81.2076 81.2078C76.7055 85.71 71.401 89.1172 65.6176 91.3012C67.2693 89.3176 68.809 87.0022 70.2094 84.3668C71.6977 81.5658 72.9824 78.4902 74.0531 75.2055C77.8549 75.833 81.3721 76.609 84.5053 77.5217C83.4812 78.8002 82.383 80.0322 81.2076 81.2078ZM88.009 72.4627C84.3693 71.2926 80.1965 70.308 75.6406 69.5311C76.8703 64.3201 77.6031 58.7186 77.7971 52.9328H94.0365C93.5818 59.9012 91.5135 66.5564 88.009 72.4627Z" fill="white"/>
</g>
<defs>
<clipPath id="clip0_170_440">
<rect width="100" height="100" fill="white"/>
</clipPath>
</defs>
</svg>
