<svg width="343" height="158" viewBox="0 0 343 158" fill="none" xmlns="http://www.w3.org/2000/svg">
<g opacity="0.1">
<path d="M276.501 298.105C332.574 234.774 370.393 176.673 360.972 168.331C351.551 159.99 298.457 204.567 242.384 267.898C186.311 331.229 148.492 389.33 157.913 397.672C167.334 406.013 220.428 361.436 276.501 298.105Z" stroke="white" stroke-opacity="0.5" stroke-width="2" stroke-miterlimit="10"/>
<path d="M278.025 299.02C335.468 232.039 373.766 170.648 363.565 161.9C353.364 153.152 298.529 200.36 241.085 267.341C183.642 334.323 145.345 395.714 155.545 404.462C165.746 413.21 220.582 366.002 278.025 299.02Z" stroke="white" stroke-opacity="0.5" stroke-width="2" stroke-miterlimit="10"/>
<path d="M279.35 299.699C337.981 229.05 376.595 164.379 365.597 155.253C354.6 146.126 298.155 195.999 239.524 266.647C180.893 337.296 142.279 401.967 153.277 411.094C164.275 420.221 220.72 370.348 279.35 299.699Z" stroke="white" stroke-opacity="0.5" stroke-width="2" stroke-miterlimit="10"/>
<path d="M281.085 300.315C340.825 225.855 379.579 157.73 367.643 148.154C355.708 138.578 297.603 191.177 237.863 265.638C178.123 340.098 139.37 408.223 151.305 417.799C163.241 427.375 221.345 374.775 281.085 300.315Z" stroke="white" stroke-opacity="0.5" stroke-width="2" stroke-miterlimit="10"/>
<path d="M282.944 301.248C343.613 222.971 382.293 151.376 369.339 141.335C356.385 131.295 296.702 186.612 236.033 264.89C175.364 343.167 136.684 414.762 149.638 424.802C162.592 434.842 222.275 379.525 282.944 301.248Z" stroke="white" stroke-opacity="0.5" stroke-width="2" stroke-miterlimit="10"/>
<path d="M285.041 302.321C346.493 220.153 384.863 144.982 370.744 134.422C356.624 123.862 295.361 181.912 233.909 264.081C172.457 346.249 134.087 421.42 148.207 431.98C162.327 442.54 223.589 384.49 285.041 302.321Z" stroke="white" stroke-opacity="0.5" stroke-width="2" stroke-miterlimit="10"/>
<path d="M287.175 303.102C349.158 217.083 386.991 138.406 371.677 127.372C356.364 116.338 293.704 177.125 231.721 263.143C169.738 349.162 131.905 427.839 147.219 438.873C162.532 449.907 225.192 389.12 287.175 303.102Z" stroke="white" stroke-opacity="0.5" stroke-width="2" stroke-miterlimit="10"/>
<path d="M289.658 304.098C352.008 214.157 388.995 131.848 372.271 120.254C355.547 108.66 291.444 172.173 229.095 262.113C166.745 352.054 129.758 434.363 146.482 445.957C163.206 457.551 227.308 394.039 289.658 304.098Z" stroke="white" stroke-opacity="0.5" stroke-width="2" stroke-miterlimit="10"/>
<path d="M292.615 305.081C355.119 211.2 390.956 125.219 372.658 113.037C354.361 100.854 288.858 167.084 226.353 260.965C163.849 354.846 128.012 440.827 146.31 453.009C164.607 465.192 230.11 398.962 292.615 305.081Z" stroke="white" stroke-opacity="0.5" stroke-width="2" stroke-miterlimit="10"/>
<path d="M295.73 306.099C358.163 208.272 392.584 118.636 372.613 105.89C352.642 93.1446 285.84 162.116 223.408 259.943C160.975 357.769 126.554 447.406 146.525 460.151C166.496 472.897 233.298 403.925 295.73 306.099Z" stroke="white" stroke-opacity="0.5" stroke-width="2" stroke-miterlimit="10"/>
<path d="M299.287 307.29C361.325 205.647 393.826 112.391 371.879 98.9962C349.933 85.6011 281.85 157.14 219.812 258.782C157.774 360.424 125.273 453.681 147.22 467.076C169.166 480.471 237.249 408.932 299.287 307.29Z" stroke="white" stroke-opacity="0.5" stroke-width="2" stroke-miterlimit="10"/>
<path d="M303.079 308.464C364.483 203.009 394.78 106.177 370.748 92.1844C346.717 78.1916 277.459 152.337 216.055 257.792C154.651 363.247 124.355 460.079 148.386 474.072C172.417 488.065 241.676 413.919 303.079 308.464Z" stroke="white" stroke-opacity="0.5" stroke-width="2" stroke-miterlimit="10"/>
<path d="M307.228 309.598C367.692 200.403 395.28 100.018 368.848 85.3818C342.415 70.7455 271.972 147.4 211.507 256.595C151.043 365.79 123.455 466.176 149.887 480.812C176.32 495.448 246.763 418.793 307.228 309.598Z" stroke="white" stroke-opacity="0.5" stroke-width="2" stroke-miterlimit="10"/>
<path d="M312.314 310.941C371.559 198.084 395.948 94.1867 366.788 78.879C337.629 63.5713 265.962 142.65 206.717 255.507C147.472 368.363 123.083 472.26 152.243 487.568C181.402 502.876 253.069 423.797 312.314 310.941Z" stroke="white" stroke-opacity="0.5" stroke-width="2" stroke-miterlimit="10"/>
<path d="M317.792 312.014C375.468 195.649 396.158 88.3969 364.005 72.4602C331.851 56.5234 259.03 137.936 201.354 254.301C143.678 370.666 122.988 477.918 155.141 493.855C187.295 509.792 260.116 428.379 317.792 312.014Z" stroke="white" stroke-opacity="0.5" stroke-width="2" stroke-miterlimit="10"/>
<path d="M323.973 313.088C379.769 193.317 396.176 82.7952 360.618 66.2302C325.06 49.6653 251.002 133.33 195.206 253.101C139.41 372.871 123.004 483.393 158.562 499.958C194.12 516.523 268.177 432.858 323.973 313.088Z" stroke="white" stroke-opacity="0.5" stroke-width="2" stroke-miterlimit="10"/>
<path d="M330.593 314.088C384.157 191.105 395.712 77.5291 356.404 60.4086C317.095 43.2881 241.806 129.107 188.243 252.09C134.679 375.073 123.124 488.649 162.433 505.769C201.742 522.89 277.03 437.071 330.593 314.088Z" stroke="white" stroke-opacity="0.5" stroke-width="2" stroke-miterlimit="10"/>
<path d="M338.437 315.185C389.438 189.191 395.414 72.7359 351.784 55.075C308.154 37.414 231.441 125.235 180.44 251.229C129.439 377.223 123.463 493.678 167.093 511.339C210.723 529 287.436 441.179 338.437 315.185Z" stroke="white" stroke-opacity="0.5" stroke-width="2" stroke-miterlimit="10"/>
<path d="M347.031 315.822C395.123 187.027 394.882 67.9707 346.493 49.9023C298.104 31.8339 219.891 121.595 171.799 250.39C123.707 379.185 123.948 498.241 172.337 516.309C220.726 534.378 298.939 444.616 347.031 315.822Z" stroke="white" stroke-opacity="0.5" stroke-width="2" stroke-miterlimit="10"/>
<path d="M356.877 316.453C401.739 185.103 394.489 63.7251 340.685 45.3487C286.88 26.9723 206.896 118.556 162.034 249.906C117.173 381.257 124.422 502.634 178.227 521.011C232.031 539.387 312.016 447.804 356.877 316.453Z" stroke="white" stroke-opacity="0.5" stroke-width="2" stroke-miterlimit="10"/>
<path d="M367.922 316.641C409.232 182.989 394.171 59.6364 334.284 41.126C274.396 22.6156 192.359 115.957 151.049 249.609C109.739 383.262 124.799 506.614 184.687 525.124C244.575 543.635 326.612 450.294 367.922 316.641Z" stroke="white" stroke-opacity="0.5" stroke-width="2" stroke-miterlimit="10"/>
<path d="M380.138 316.461C417.611 180.721 393.91 55.7525 327.201 37.3363C260.491 18.9201 176.034 114.03 138.561 249.77C101.088 385.51 124.789 510.478 191.498 528.894C258.208 547.311 342.665 452.201 380.138 316.461Z" stroke="white" stroke-opacity="0.5" stroke-width="2" stroke-miterlimit="10"/>
<path d="M394.119 315.792C427.49 178.26 394.269 52.1432 319.917 34.1023C245.565 16.0614 158.239 112.928 124.868 250.46C91.4965 387.992 124.718 514.108 199.07 532.149C273.421 550.19 360.748 453.324 394.119 315.792Z" stroke="white" stroke-opacity="0.5" stroke-width="2" stroke-miterlimit="10"/>
<path d="M409.525 314.432C438.534 175.439 394.863 48.7408 311.984 31.4438C229.106 14.1467 138.403 112.801 109.395 251.793C80.3865 390.786 124.057 517.484 206.936 534.782C289.814 552.079 380.517 453.425 409.525 314.432Z" stroke="white" stroke-opacity="0.5" stroke-width="2" stroke-miterlimit="10"/>
<path d="M426.94 312.38C451.4 172.124 396.236 45.3456 303.727 29.2121C211.218 13.0787 116.395 113.7 91.9345 253.955C67.4741 394.211 122.639 520.99 215.148 537.123C307.657 553.257 402.479 452.636 426.94 312.38Z" stroke="white" stroke-opacity="0.5" stroke-width="2" stroke-miterlimit="10"/>
<path d="M446.262 309.129C465.999 167.888 398.371 41.7027 295.209 27.2868C192.048 12.8708 92.4186 115.683 72.6813 256.924C52.9441 398.165 120.573 524.35 223.734 538.766C326.896 553.182 426.525 450.37 446.262 309.129Z" stroke="white" stroke-opacity="0.5" stroke-width="2" stroke-miterlimit="10"/>
<path d="M467.613 304.983C482.495 163.08 401.317 38.2661 286.296 26.203C171.275 14.14 65.9669 119.396 51.0846 261.299C36.2022 403.202 117.381 528.017 232.402 540.08C347.423 552.143 452.731 446.887 467.613 304.983Z" stroke="white" stroke-opacity="0.5" stroke-width="2" stroke-miterlimit="10"/>
<path d="M491.584 299.258C501.543 156.835 405.718 34.1131 277.553 25.1513C149.387 16.1894 37.4157 124.381 27.4569 266.804C17.498 409.227 113.323 531.949 241.488 540.91C369.654 549.872 481.625 441.681 491.584 299.258Z" stroke="white" stroke-opacity="0.5" stroke-width="2" stroke-miterlimit="10"/>
<path d="M259.5 541.622C402.266 541.622 518 425.888 518 283.122C518 140.357 402.266 24.6223 259.5 24.6223C116.734 24.6223 1 140.357 1 283.122C1 425.888 116.734 541.622 259.5 541.622Z" stroke="white" stroke-opacity="0.5" stroke-width="2" stroke-miterlimit="10"/>
</g>
</svg>
