<svg width="28" height="28" viewBox="0 0 28 28" fill="none" xmlns="http://www.w3.org/2000/svg">
<g clip-path="url(#clip0_19_45)">
<path d="M26.7814 14.4512C27.5513 13.7239 27.9999 12.7003 27.9999 11.6317C27.9999 9.84794 26.7689 8.30384 25.0744 7.87624C24.8556 6.50917 24.0476 5.30331 22.8449 4.58018C22.6013 3.19768 21.3857 2.15446 19.9537 2.15446C19.4059 2.15446 18.8831 2.30256 18.4287 2.58026C18.0538 1.91854 17.5349 1.34854 16.9017 0.908193C16.0474 0.31407 15.044 0 14 0C12.2109 0 10.5628 0.94467 9.64768 2.4512C9.24955 2.25766 8.80921 2.15452 8.36301 2.15452C7.0071 2.15452 5.8329 3.0935 5.5132 4.38445C4.12234 5.06416 3.16684 6.36802 2.92594 7.87619C1.23118 8.30362 0 9.84783 0 11.6317C0 12.7002 0.448546 13.7237 1.21844 14.4511C0.973709 15.0034 0.84585 15.6039 0.84585 16.2114C0.84585 18.6085 2.79617 20.5588 5.19339 20.5588C5.2484 20.5588 5.30402 20.5577 5.36024 20.5554C5.86418 21.4232 6.789 21.9651 7.81548 21.9651C8.7584 21.9651 9.62875 21.4967 10.1533 20.7383L12.1232 22.3303L12.1254 23.1407C12.1265 24.5764 11.6968 25.9604 10.8826 27.143C10.7114 27.3918 10.7742 27.7323 11.023 27.9035C11.1177 27.9687 11.2257 28 11.3326 28C11.5065 28 11.6775 27.9172 11.7835 27.7631C12.724 26.3971 13.2203 24.7983 13.2191 23.1387L13.2161 22.067C13.2156 21.9023 13.1411 21.7466 13.013 21.6431L9.74037 18.9984C9.19826 18.56 8.88736 17.9088 8.88736 17.2117V14.8752C9.10983 15.425 9.49428 15.8923 9.9811 16.2183V17.2117C9.9811 17.577 10.144 17.9183 10.4282 18.1481L12.3254 19.6814C12.4246 19.7616 12.5464 19.803 12.6693 19.803C12.7494 19.803 12.83 19.7854 12.9051 19.7494C13.0953 19.6585 13.2162 19.4662 13.2161 19.2554L13.2127 16.2376C13.2923 16.1856 13.3698 16.13 13.4445 16.0701C13.8914 16.1318 14.3387 16.1348 14.7856 16.0805L14.7849 16.7285C14.7847 16.9394 14.9057 17.1316 15.0959 17.2225C15.171 17.2584 15.2516 17.276 15.3317 17.276C15.4546 17.276 15.5765 17.2346 15.6757 17.1543L16.2628 16.6797C16.4084 16.7017 16.5565 16.7136 16.7063 16.7136C17.5314 16.7136 18.2781 16.3714 18.812 15.8216C18.672 16.0672 18.4865 16.2881 18.2598 16.4714L14.9882 19.115C14.8598 19.2187 14.7852 19.3748 14.785 19.5397L14.781 23.1399C14.7797 24.7984 15.2761 26.3971 16.2165 27.7633C16.3225 27.9173 16.4936 28.0001 16.6675 28.0001C16.7744 28.0001 16.8824 27.9688 16.977 27.9036C17.2259 27.7324 17.2887 27.3919 17.1174 27.1431C16.3033 25.9605 15.8736 24.5765 15.8747 23.141L15.8773 20.7658C16.1772 20.8459 16.4879 20.8874 16.8006 20.8874C17.158 20.8874 17.5067 20.8355 17.8426 20.7328C18.3667 21.4946 19.2392 21.9652 20.1846 21.9652C21.2111 21.9652 22.1359 21.4235 22.6398 20.5555C22.696 20.5578 22.7517 20.559 22.8067 20.559C23.2473 20.559 23.6822 20.4932 24.0993 20.3635C24.3877 20.2738 24.5488 19.9672 24.4591 19.6788C24.3694 19.3905 24.0628 19.2292 23.7745 19.319C23.4626 19.416 23.137 19.4652 22.8067 19.4652C22.6696 19.4652 22.5315 19.456 22.3843 19.4369C22.1369 19.4049 21.8997 19.544 21.8067 19.7751C21.5387 20.4411 20.902 20.8714 20.1846 20.8714C19.4943 20.8714 18.8669 20.4633 18.5863 19.8316C18.5266 19.6971 18.4152 19.5924 18.2773 19.5411C18.1395 19.4898 17.9868 19.4961 17.8536 19.5588C17.5226 19.7146 17.1683 19.7936 16.8006 19.7936C16.5406 19.7936 16.2828 19.7523 16.0377 19.6732L18.9474 17.3221C19.7045 16.7098 20.1554 15.8161 20.2018 14.8499C20.3631 14.8772 20.5272 14.8919 20.6931 14.8919C22.2674 14.8919 23.5563 13.6465 23.6264 12.0891C24.489 11.2876 25.0171 10.2018 25.1168 9.03386C26.1702 9.43675 26.9062 10.4627 26.9062 11.6317C26.9062 12.5111 26.4826 13.3482 25.7731 13.871C25.5488 14.0363 25.4847 14.3438 25.6242 14.5851C25.8822 15.031 26.0273 15.5177 26.0554 16.0313C26.0713 16.3228 26.3126 16.5484 26.601 16.5484C26.611 16.5484 26.6212 16.5481 26.6313 16.5475C26.9329 16.5311 27.164 16.2732 27.1475 15.9716C27.1189 15.4486 26.9936 14.9308 26.7814 14.4512ZM9.05284 19.849L9.29861 20.0476C8.98219 20.5545 8.42339 20.8713 7.81548 20.8713C7.0981 20.8713 6.46132 20.441 6.19335 19.775C6.10038 19.5439 5.86314 19.4049 5.61579 19.4368C5.47071 19.4556 5.32863 19.4652 5.19339 19.4652C3.3992 19.4652 1.9396 18.0055 1.9396 16.2114C1.9396 15.6406 2.09043 15.0782 2.37573 14.5852C2.51535 14.344 2.4512 14.0364 2.22682 13.871C1.51736 13.3482 1.09375 12.5111 1.09375 11.6317C1.09375 10.4628 1.82979 9.43675 2.88306 9.03375C2.99649 10.3546 3.66072 11.5696 4.71794 12.3799C4.92416 13.8086 6.15195 14.8918 7.62375 14.8918C7.68063 14.8918 7.73723 14.8897 7.79361 14.8865V17.2116C7.79366 18.2406 8.25255 19.2018 9.05284 19.849ZM12.1211 18.1099L11.1159 17.2975C11.0891 17.2758 11.0749 17.2461 11.0749 17.2117V16.664C11.2487 16.6962 11.4276 16.7136 11.6106 16.7136C11.7828 16.7136 11.953 16.6985 12.1195 16.6694L12.1211 18.1099ZM22.7298 11.4215C22.598 11.5311 22.5264 11.7402 22.5344 11.9115C22.5358 11.9406 22.5344 11.8819 22.5344 11.9115C22.5344 12.9274 21.709 13.798 20.6931 13.798C20.237 13.798 19.7992 13.63 19.4606 13.3249C19.2989 13.1791 19.066 13.1432 18.8678 13.2335C18.6697 13.3237 18.5445 13.5413 18.5483 13.759C18.5483 14.7749 17.7223 15.6198 16.7062 15.6198C16.2236 15.6198 15.7671 15.4341 15.421 15.0968C15.3179 14.9964 15.1806 14.9416 15.0393 14.9416C15.0052 14.9416 14.9708 14.9449 14.9367 14.9514C14.4197 15.0501 13.8973 15.0502 13.3799 14.9514C13.2044 14.918 13.0237 14.9722 12.8957 15.0968C12.5496 15.4341 12.0931 15.6198 11.6105 15.6198C10.5945 15.6198 9.76848 14.7556 9.76848 13.7406C9.77225 13.5229 9.64707 13.3237 9.44894 13.2335C9.25076 13.1432 9.01801 13.1791 8.85619 13.3249C8.51751 13.63 8.07979 13.798 7.62375 13.798C6.64277 13.798 5.83454 13.0315 5.78374 12.0529C5.77493 11.8825 5.68694 11.7259 5.54601 11.6297C4.55245 10.9512 3.95931 9.8294 3.95931 8.62874C3.95931 7.15333 4.84076 5.83564 6.20494 5.27176C6.38486 5.19738 6.51168 5.03288 6.53793 4.83994C6.6612 3.93252 7.4458 3.24821 8.36291 3.24821C8.78608 3.24821 9.18426 3.3881 9.51424 3.65279C9.64625 3.75861 9.81983 3.79744 9.98411 3.7579C10.1486 3.71841 10.2855 3.60505 10.355 3.45088C11.0005 2.019 12.4312 1.09375 14 1.09375C15.6568 1.09375 17.1179 2.09119 17.7223 3.63485C17.7902 3.80848 17.942 3.93552 18.1248 3.97189C18.3079 4.00815 18.4965 3.94892 18.6257 3.81455C18.9767 3.44941 19.4484 3.24832 19.9537 3.24832C20.9168 3.24832 21.7239 4.00027 21.791 4.96015C21.8042 5.14991 21.9152 5.31911 22.0838 5.407C23.2907 6.0359 24.0405 7.27041 24.0405 8.62885C24.0406 9.71051 23.5628 10.7284 22.7298 11.4215Z" fill="#407CFF"/>
<path d="M25.9346 18.9176C26.2366 18.9176 26.4814 18.6727 26.4814 18.3707C26.4814 18.0687 26.2366 17.8238 25.9346 17.8238C25.6325 17.8238 25.3877 18.0687 25.3877 18.3707C25.3877 18.6727 25.6325 18.9176 25.9346 18.9176Z" fill="#407CFF"/>
</g>
<defs>
<clipPath id="clip0_19_45">
<rect width="28" height="28" fill="white"/>
</clipPath>
</defs>
</svg>
