<svg width="625" height="405" viewBox="0 0 625 405" fill="none" xmlns="http://www.w3.org/2000/svg">
<rect width="625" height="405" fill="#1E1E1E"/>
<g id="&#208;&#161;&#208;&#176;&#208;&#180;&#208;&#184;-21.06.2022">
<rect width="3497.33" height="5489.33" transform="translate(3016.33 -2883) rotate(90)" fill="white"/>
<g id="g10">
<g id="&#208;&#190;&#208;&#183;&#208;&#181;&#209;&#128;&#208;&#176;">
<path id="path324" fill-rule="evenodd" clip-rule="evenodd" d="M506.263 420.52L511.223 435.24L512.663 451.56L510.743 470.76L505.303 474.6L493.463 478.6L466.903 481.96L446.263 479.56L425.623 473.16L415.383 471.24H412.343L408.023 473.16L400.503 481L393.623 486.92L369.623 495.88L362.743 495.24L359.223 492.84L351.863 458.92V425.48L354.263 417.32L359.383 411.56L365.143 407.72L393.623 400.84L419.863 399.88L439.063 403.88L449.303 411.24L459.063 415.08L468.023 416.2L483.703 414.6L498.423 415.56L504.343 417.16L506.263 420.52Z" fill="#C1FFFF"/>
<path id="path348" fill-rule="evenodd" clip-rule="evenodd" d="M158.903 432.84L152.503 474.12L152.023 480.52L149.943 482.12L144.503 481.64L127.063 469.48L112.823 457.8L99.5433 450.6L85.3033 449.8L73.7833 451.56L60.6633 453L52.0233 451.56L44.5033 446.92L-1.41668 405.48L-13.8967 393.96L-19.4967 386.76L-21.0967 380.84L-19.8167 372.84L-5.25668 340.84L12.8233 319.08L21.9433 310.92L31.5433 308.84L38.7433 310.92L44.3433 314.92L68.8233 351.24L80.6633 362.44L100.503 380.04L123.383 401.48L133.463 410.28L142.263 417.48L152.663 422.76L156.983 425.32L158.903 428.2V432.84Z" fill="#C1FFFF"/>
<path id="path384" fill-rule="evenodd" clip-rule="evenodd" d="M540.503 405.48L545.143 400.52L549.463 398.92L583.543 401.32L614.423 409.64L630.103 416.36L640.183 418.76L670.103 424.04L696.663 429.8L723.223 439.24L732.813 443.08L753.933 444.68L767.213 446.6L772.013 449.64L776.333 456.2L774.893 461.8L769.773 466.92L757.293 470.76L743.693 471.88L736.973 475.4L730.413 480.2L721.143 485.64L708.183 487.56L693.463 484.68L665.303 475.72L646.103 474.28L625.943 468.36L613.943 465.48L596.663 460.2L580.503 457.48L568.983 458.12L558.583 461L551.703 464.2L546.103 465.48L543.543 462.6L542.263 457.48L540.823 425.48L540.503 405.48Z" fill="#C1FFFF"/>
</g>
<g id="11">
<path id="Vector 4" d="M466.166 229.733C463.616 228.6 460.48 229 457.46 227.395C454.833 226 454.339 226.522 452.34 224.856C449.551 222.532 445.517 221.291 442.585 219.011C439.307 216.461 436.231 215.3 432.427 213.61C429.106 212.133 425.832 209.871 422.229 209.216C418.9 208.611 415.034 206.889 412.112 205.266C407.837 202.891 402.343 201.804 397.641 200.549C392.947 199.298 387.996 196.674 383.815 194.422C380.125 192.436 376.012 191.358 372.205 189.666C363.981 186.011 355.587 182.927 348.625 177.009C342.772 172.034 335.349 168.954 328.147 166.287C320.255 163.364 314.4 155.881 307.832 150.888C304.761 148.555 301.31 145.826 298.56 143.23C295.656 140.486 291.138 135.894 287.516 134.362C279.45 130.949 277.089 119.377 270.626 114.207C267.398 111.624 266.143 105.086 264.459 101.55C262.218 96.8436 260.894 91.6825 258.292 86.9983C254.043 79.3501 249.414 71.5225 246.32 63.0143C244.326 57.5322 240.569 52.614 238.742 47.1325C237.433 43.207 236.228 38.7816 233.663 35.4831C229.823 30.5468 226.911 24.2368 219.837 24.2368H199.521C185.058 24.2368 170.285 23.5112 156.027 23.5112C148.728 23.5112 140.466 23.2701 133.857 26.5747C130.47 28.2684 126.719 29.4126 123.538 31.4925C121.016 33.1414 115.701 37.6831 112.815 38.0226C110.402 38.3065 106.981 41.6722 104.995 43.1015C101.599 45.547 98.5335 48.1083 95.7244 51.0828C93.108 53.853 90.4799 55.1365 87.4207 57.0485C85.015 58.5521 82.9822 62.0513 80.8906 64.143C77.7177 67.3158 74.7232 70.5758 70.7326 72.6885C68.1576 74.0518 65.1888 75.502 62.9126 77.3644C60.6946 79.1791 59.1824 82.2219 57.6725 84.6201C54.7623 89.242 51.1295 94.0617 48.8044 98.9701C47.2722 102.205 45.7753 105.293 44.0479 108.403C42.6313 110.952 40.6459 114.812 38.8077 117.109C36.4715 120.03 36.1859 124.652 35.0186 128.154C33.7997 131.811 31.8373 135.59 31.5521 139.441C30.9208 147.963 27.5006 156.495 26.4328 165.037C25.8708 169.532 24.3589 174.332 22.4825 178.46C20.6855 182.413 20.0471 188.55 19.2578 192.891C18.0034 199.79 13.3413 206.592 16.6779 213.932C18.7691 218.533 21.7325 224.832 25.3847 228.484C31.2264 234.325 35.5563 241.613 40.5813 248.074L55.8182 267.664C58.1903 270.714 59.9641 274.031 62.3483 277.097C64.8845 280.357 67.888 283.286 70.4102 286.529C74.4622 291.739 79.851 297.412 85.5664 300.678C90.5836 303.545 91.6948 309.931 96.833 312.5C103.833 319 105.489 323.454 111.333 327.5L111.504 327.619C115.799 330.592 122.706 335.373 126.333 339C128.932 341.599 136.899 344.011 138.833 347C140.842 350.104 144.774 349.29 147.333 352C151.833 354 153.326 354.674 156.188 356.546C159.837 358.932 163.515 361.263 167.596 363.076C169.076 363.734 174.487 364.707 175.214 365.616C176.816 367.619 181.692 365.913 183.195 367.793C184.49 369.41 188.867 369.069 190.854 370.695C200.664 378.721 210.916 380.17 222.054 383.352C225.52 384.342 231.257 385 234.833 385C238.165 385 240.501 385.5 243.833 385.5H253.833C259.833 385 260.335 386.61 262.833 385.5C265.949 384.115 271.647 384.169 274.833 382.828C276.792 382.003 283.704 379.618 285.833 379.5C291.646 379.177 296.643 376.185 301.833 374C306.517 372.028 309.825 370.874 314.833 370.695C317.001 370.617 319.755 370.116 321.833 369.5C323.693 368.949 325.095 368.777 326.858 367.994C329.247 366.932 332.988 366.704 335.564 366.704C339.776 366.704 343.724 365.253 347.899 365.253C362.54 365.253 377.06 366.051 391.433 365.253C394.376 365.09 397.558 363.802 400.543 363.802H410.66H428.8C446.672 363.802 464.697 360.9 482.532 360.9C489.517 360.9 496.446 360.174 503.533 360.174C510.48 360.174 515.737 357.738 521.632 354.37C522.866 353.664 523.43 352.035 524.574 351.145C526.009 350.029 527.586 349.957 528.565 348.243C530.183 345.41 532.895 342.972 534.007 339.858C535.845 334.713 537.264 329.065 539.852 324.259C541.331 321.511 542.372 315.753 544.89 313.738C546.991 312.057 548.06 305.492 548.155 303.016C548.328 298.537 550.332 294.352 550.332 289.794C550.332 284.52 547.543 279.2 543.076 276.573C540.697 275.173 538.003 272.723 535.095 272.381C533.558 272.2 530.367 268.989 528.565 268.188C523.831 266.084 518.806 264.437 514.054 262.061C508.079 259.074 502.74 255.34 496.64 252.629C492.025 250.578 487.996 247.774 484.305 244.083C481.027 240.804 478.586 234.608 474.148 232.636C471.629 231.516 468.773 230.892 466.166 229.733Z" fill="#D2ECD2"/>
<path id="path31866" d="M579.586 389L624.066 266.76L500.226 231.08L296.866 133.64L291.426 125.32L193.186 380.04L210.146 388.52L276.066 404.2L325.666 388.04L352.866 386.92L528.706 374.28L579.586 389Z" stroke="#464F60" stroke-width="0.8" stroke-miterlimit="10" stroke-linecap="round" stroke-linejoin="round"/>
<path id="path31880" d="M291.426 125.32L257.186 61.6398L233.826 0.839844L151.746 12.0398L106.146 26.1198L61.666 60.0398L41.506 90.2798L21.9861 116.36L13.5061 149.48L0.706055 182.44L8.22605 243.88L55.586 285.32L76.226 303.08L139.906 351.24L193.186 380.04L291.426 125.32Z" stroke="#464F60" stroke-width="0.8" stroke-miterlimit="10" stroke-linecap="round" stroke-linejoin="round"/>
</g>
</g>
</g>
</svg>
