<svg width="352" height="1028" viewBox="0 0 352 1028" fill="none" xmlns="http://www.w3.org/2000/svg">
<rect width="352" height="1028" fill="#1E1E1E"/>
<g id="&#208;&#161;&#208;&#176;&#208;&#180;&#208;&#184;-21.06.2022" clip-path="url(#clip0_133_2)">
<rect width="3497.33" height="5489.33" transform="translate(3115.33 -528) rotate(90)" fill="white"/>
<g id="g10">
<g id="4">
<path id="Vector 1" d="M-595.667 892.5V871.5L-558.167 772.5L-351.167 340L-94.6667 -183.5L76.3333 -135L68.3333 -95L32.8333 66.5L23.3333 179.5L-4.16675 297L-36.6667 500.5L-110.667 764.5L-204.667 997.5L-595.667 892.5Z" fill="#D2ECD2"/>
<path id="path21706" d="M-30.0537 136.16L-215.814 64.4799L-175.494 -17.9202L-166.214 -36.1602L16.9863 34.5598L-30.0537 136.16Z" stroke="#464F60" stroke-width="1.12" stroke-miterlimit="10" stroke-linecap="round" stroke-linejoin="round"/>
<path id="path21708" d="M16.9864 34.5602L-166.214 -36.1598L-131.814 -103.52L-118.374 -137.76L64.1864 -67.3598L16.9864 34.5602Z" stroke="#464F60" stroke-width="1.12" stroke-miterlimit="10" stroke-linecap="round" stroke-linejoin="round"/>
<path id="path21712" d="M-98.8538 307.36L40.9862 5.12012L29.6262 85.4401L24.9862 196.96L-7.65376 315.2L-11.3338 341.12L-98.8538 307.36Z" stroke="#464F60" stroke-width="1.12" stroke-miterlimit="10" stroke-linecap="round" stroke-linejoin="round"/>
</g>
<g id="3">
<path id="path21726" d="M38.5859 1020.64L19.7059 1012.16L4.66591 971.519L1.30591 938.399L8.34591 905.279L16.8259 868.959L16.3459 844.319L11.2259 822.719V801.919L18.2659 775.839L27.2259 754.559L28.6659 733.279L24.9859 704.959L31.5459 672.319L40.0259 640.319L43.8659 609.119L38.5859 591.039L25.7859 573.119L24.5059 561.759L31.5459 538.239L97.1459 544.159L86.7459 661.279L90.5859 790.879L82.2659 939.519L52.8259 975.199L38.5859 1020.64Z" stroke="#464F60" stroke-width="1.12" stroke-miterlimit="10" stroke-linecap="round" stroke-linejoin="round"/>
<path id="path21728" d="M332.826 231.2L264.346 222.56L266.266 213.28L271.066 187.04V171.68L265.946 161.44L267.386 124.48L263.546 79.6798L245.306 69.5998L215.706 62.0798L172.986 70.0798L165.466 77.5998L136.986 221.44L123.706 316.96L123.866 355.52L101.146 498.72L97.1456 544.16L31.5456 538.24L28.9856 500.8L27.2256 475.36L26.2656 443.68L24.5056 386.56L39.5456 288.16L54.4256 201.12L83.0656 33.1198L104.826 31.1998L133.146 14.0798L146.106 1.27979L211.866 46.7198L240.986 57.7598L293.946 77.7598L297.626 90.7198L310.266 102.24L327.386 104.48L340.026 114.88L347.226 123.36L351.386 136L347.226 152.64L338.266 156.8L331.066 167.68L343.706 189.28L332.826 231.2Z" stroke="#464F60" stroke-width="1.12" stroke-miterlimit="10" stroke-linecap="round" stroke-linejoin="round"/>
<path id="path21730" d="M332.826 231.2L321.146 275.52L303.226 309.76L286.746 303.36L264.986 304.8L241.306 317.92L247.386 293.44L256.186 263.52L264.346 222.56L332.826 231.2Z" stroke="#464F60" stroke-width="1.12" stroke-miterlimit="10" stroke-linecap="round" stroke-linejoin="round"/>
<path id="path21840" d="M158.426 810.559L149.146 844.799L133.146 879.839L107.546 927.999L89.6257 959.199L79.2257 994.239V1027.2L48.9857 1025.44L38.5857 1020.64L52.8257 975.199L82.2657 939.519L92.5057 927.039L99.3857 803.199L158.426 810.559Z" stroke="#464F60" stroke-width="1.12" stroke-miterlimit="10" stroke-linecap="round" stroke-linejoin="round"/>
<path id="path21842" d="M158.426 810.56L99.3859 803.2L100.026 791.04L96.3459 661.6L100.986 607.68L190.586 619.04L204.026 637.92L205.946 666.24L200.186 713.44L184.186 740.96L164.346 789.12L158.426 810.56Z" stroke="#464F60" stroke-width="1.12" stroke-miterlimit="10" stroke-linecap="round" stroke-linejoin="round"/>
<path id="path21844" d="M190.586 619.04L100.986 607.68L110.586 499.84L123.386 419.04L220.506 431.36L207.706 560.48L193.626 582.08L183.226 600.16L187.866 615.2L190.586 619.04Z" stroke="#464F60" stroke-width="1.12" stroke-miterlimit="10" stroke-linecap="round" stroke-linejoin="round"/>
<path id="path21846" d="M220.505 431.36L123.385 419.04L133.465 356.16L133.145 317.6L144.185 238.72L248.825 252L247.065 261.28L237.945 291.52L236.185 308L241.305 317.92L228.505 340.16L221.945 415.84L220.505 431.36Z" stroke="#464F60" stroke-width="1.12" stroke-miterlimit="10" stroke-linecap="round" stroke-linejoin="round"/>
<path id="path21848" d="M144.186 238.72L146.426 223.04L174.746 79.3598L215.386 71.8398L241.786 78.3998L254.586 85.4398L257.946 124.8L256.506 163.52L261.626 173.92V186.08L256.986 211.36L248.826 252L144.186 238.72Z" stroke="#464F60" stroke-width="1.12" stroke-miterlimit="10" stroke-linecap="round" stroke-linejoin="round"/>
</g>
<g id="2">
<path id="path21732" d="M430.906 968.96H427.546L422.266 967.68L438.906 906.72L452.986 867.52L457.306 741.92L460.986 694.56L462.426 641.28L460.506 600.64L453.466 587.84H443.066L437.466 602.4L429.786 661.12L412.826 702.08L389.306 694.56L391.066 644.48L362.266 543.36L336.026 523.68L535.706 525.76L528.986 570.56L514.106 670.08L513.786 672.48L502.586 755.36L491.226 838.24L493.146 896.8L472.346 912.96L459.226 934.72L441.626 956.32L430.906 968.96Z" stroke="#464F60" stroke-width="1.12" stroke-miterlimit="10" stroke-linecap="round" stroke-linejoin="round"/>
<path id="path21734" d="M535.706 525.76L336.026 523.68L330.266 519.36L295.066 517.76L261.626 516L285.306 426.24L294.106 393.6L551.066 396.32L549.946 429.92L547.706 444.8L535.706 525.76Z" stroke="#464F60" stroke-width="1.12" stroke-miterlimit="10" stroke-linecap="round" stroke-linejoin="round"/>
<path id="path21736" d="M551.066 396.32L294.106 393.6L299.386 374.24L305.146 354.4L332.506 358.08L362.746 341.12L378.906 300.48L419.546 251.36L446.906 215.52L448.026 198.72L560.986 200L555.546 273.12L554.586 301.28L551.066 396.32Z" stroke="#464F60" stroke-width="1.12" stroke-miterlimit="10" stroke-linecap="round" stroke-linejoin="round"/>
<path id="path21738" d="M560.986 200L448.026 198.72L449.786 173.92L436.506 145.6L415.706 127.52L409.146 113.92L395.066 115.68L383.066 111.04L370.586 110.24L359.226 104.48L348.186 86.3999L349.626 81.9199L571.226 84.1599L566.906 121.92L564.026 159.68L560.986 200Z" stroke="#464F60" stroke-width="1.12" stroke-miterlimit="10" stroke-linecap="round" stroke-linejoin="round"/>
<path id="path21740" d="M571.226 84.1599L349.626 81.9199L353.306 70.5599L369.786 55.5199L391.866 46.5599L400.826 40.1599L404.506 38.0799L421.306 6.55994L443.066 -42.5601L482.746 -28.3201L510.266 -3.84006L533.786 3.83994L580.186 4.63994L578.586 18.5599L571.226 84.1599Z" stroke="#464F60" stroke-width="1.12" stroke-miterlimit="10" stroke-linecap="round" stroke-linejoin="round"/>
</g>
</g>
</g>
<defs>
<clipPath id="clip0_133_2">
<rect width="3497.33" height="5489.33" fill="white" transform="translate(3115.33 -528) rotate(90)"/>
</clipPath>
</defs>
</svg>
