<svg width="834" height="1597" viewBox="0 0 834 1597" fill="none" xmlns="http://www.w3.org/2000/svg">
<rect width="834" height="1597" fill="#1E1E1E"/>
<g id="&#208;&#161;&#208;&#176;&#208;&#180;&#208;&#184;-21.06.2022" clip-path="url(#clip0_133_2)">
<rect width="3497.33" height="5489.33" transform="translate(3866.33 -344) rotate(90)" fill="white"/>
<g id="g10">
<path id="Vector 9" fill-rule="evenodd" clip-rule="evenodd" d="M-101.294 526.56L-101.774 512.64L-100.814 491.52L-98.5742 478.08L-96.3342 465.6L-94.0942 464.96L-85.1342 447.68L-76.0142 437.76L-66.8942 434.72L-60.0142 434.56L-40.0142 440.48L-20.0142 448.64L-6.89417 452.96L-0.174171 454.56L7.02583 455.52L13.7458 455.68H21.2658L35.1858 453.28L41.1058 449.76L60.9458 428.64L102.226 362.08L121.906 351.36L139.506 339.84L160.306 330.24L201.746 320.8L230.386 315.84L251.826 314.88L273.586 316.32L280.146 313.92L292.146 277.76L307.506 232.16L344.466 227.68L351.826 225.28L357.906 220.96L368.466 210.08L370.226 203.68L374.386 189.76L374.706 175.2L375.666 146.88L380.946 111.2L385.266 97.7596L390.226 92.7996L409.106 85.2796L411.186 78.3996L411.986 35.0396L414.866 13.2796L425.586 -43.5204L427.986 -48.1604L431.186 -53.1204L436.306 -54.8804L528.946 -36.8004L570.226 -26.5604L606.226 -19.5204L553.906 109.28L500.626 224.16L444.466 335.68L418.386 383.84L413.746 397.28L400.946 425.12L377.426 473.28L358.706 515.2L349.266 536.8L326.706 584.8L295.826 645.92L279.186 680.16L262.706 714.88L246.546 749.44L225.106 794.72L199.186 846.24L187.986 864.64L170.386 894.72L156.146 927.52L135.506 973.28L116.946 1011.36L101.586 1043.84L77.7458 1095.84L44.7858 1167.04L28.7858 1199.52L18.3858 1218.72L11.5058 1230.88L6.86583 1233.92L-0.174171 1235.68L-13.2942 1231.68L-22.4142 1221.12L-36.3342 1205.6L-39.3742 1199.52L-40.8142 1192.32L-42.5742 1157.44L-44.1742 1079.04L-44.0142 1013.6L-43.5342 985.92L-45.6142 971.84L-50.0942 966.24L-69.9342 960L-76.1742 956.8L-78.4142 928.16L-77.7742 899.68L-76.6542 878.72L-79.2142 857.76L-82.5742 829.6L-85.9342 801.28V780.16L-79.6942 753.12L-83.0542 730.4L-90.0942 667.36L-95.8542 604L-98.8942 568.8L-100.494 533.76L-101.294 526.56Z" fill="#D2ECD2"/>
<path id="Vector 8" fill-rule="evenodd" clip-rule="evenodd" d="M298.386 -101.12L289.426 -108.48L244.946 -122.72L153.106 -144.64L88.3062 -159.2L73.2662 -159.68L52.9462 -154.88L25.9062 -145.12L-38.7338 -122.08L-152.174 -64.9602L-228.494 -19.5202L-279.534 8.31982L-309.774 32.4798L-318.894 45.4398L-322.574 59.0398L-323.214 71.3598L-323.854 83.6798L-302.094 172.96L-290.734 269.12L-283.694 327.68L-284.654 333.12L-294.414 347.52L-294.894 353.76L-293.934 360.32L-276.334 397.76L-274.094 398.08L-270.414 397.12L-263.694 387.84L-243.694 349.6L-169.454 301.76L-122.894 280L-69.9338 272.16L-61.9338 269.12L-53.7738 258.88L-49.2938 254.4L-45.7738 249.28L-38.0938 247.2L-26.5738 251.04L-8.17377 264.64L-2.25375 266.08L7.34622 263.52L46.2262 240.64L104.626 209.28L131.666 172L149.426 161.28L184.946 148.64L194.866 145.6L217.426 133.12L249.426 128.8L257.266 123.84L265.266 108.16L269.266 80.4798L270.866 73.1198L266.706 39.5198L288.306 -21.9202L312.786 -69.7602L313.266 -76.6402L311.186 -82.4002L306.386 -92.0002L298.386 -101.12Z" fill="#D2ECD2"/>
<g id="7">
<path id="path21546" d="M-79.5341 281.92L-116.654 170.08L-37.6141 120.32L10.0659 264.48L-3.37406 266.4L-74.2541 279.04L-79.5341 281.92Z" stroke="#464F60" stroke-width="1.12" stroke-miterlimit="10" stroke-linecap="round" stroke-linejoin="round"/>
<path id="path21602" d="M10.066 264.48L-37.614 120.32L-20.174 109.44L30.226 261.44L10.066 264.48Z" stroke="#464F60" stroke-width="1.12" stroke-miterlimit="10" stroke-linecap="round" stroke-linejoin="round"/>
<path id="path21604" d="M30.2264 261.44L-20.1736 109.44L2.86642 94.8799L54.5464 250.56L44.4664 259.2L30.2264 261.44Z" stroke="#464F60" stroke-width="1.12" stroke-miterlimit="10" stroke-linecap="round" stroke-linejoin="round"/>
<path id="path21606" d="M54.546 250.56L2.86597 94.8799L136.626 10.8799L182.226 148.16L117.586 195.2L54.546 250.56Z" stroke="#464F60" stroke-width="1.12" stroke-miterlimit="10" stroke-linecap="round" stroke-linejoin="round"/>
<path id="path21608" d="M182.226 148.16L136.626 10.8805L299.666 -91.5195L266.066 2.40047L262.386 89.6005L182.226 148.16Z" stroke="#464F60" stroke-width="1.12" stroke-miterlimit="10" stroke-linecap="round" stroke-linejoin="round"/>
<path id="path21610" d="M-63.5339 -120.64L-36.6539 -133.6L-27.2139 -120.96L37.1061 -147.84L67.5061 -149.92L88.3061 -148L258.066 -104.32L287.186 -95.3599L3.98606 82.8801L-63.5339 -120.64Z" stroke="#464F60" stroke-width="1.12" stroke-miterlimit="10" stroke-linecap="round" stroke-linejoin="round"/>
<path id="path21612" d="M-63.5338 -120.64L3.98616 82.8804L-75.8538 133.12L-129.934 -30.0796L-125.614 -48.4796L-119.694 -71.5196L-124.814 -91.1996L-66.4138 -119.2L-63.5338 -120.64Z" stroke="#464F60" stroke-width="1.12" stroke-miterlimit="10" stroke-linecap="round" stroke-linejoin="round"/>
</g>
<g id="5">
<path id="path21518" d="M497.107 221.76L349.427 199.04L335.987 178.56L505.107 204.64L497.107 221.76Z" stroke="#464F60" stroke-width="1.12" stroke-miterlimit="10" stroke-linecap="round" stroke-linejoin="round"/>
<path id="path21520" d="M505.106 204.64L335.986 178.56L327.826 166.24L327.506 123.2L332.466 118.88L530.546 149.28L505.106 204.64Z" stroke="#464F60" stroke-width="1.12" stroke-miterlimit="10" stroke-linecap="round" stroke-linejoin="round"/>
<path id="path21522" d="M530.546 149.28L332.466 118.88L367.026 89.4397L370.706 75.8397L364.466 63.6797L556.306 93.1197L530.546 149.28Z" stroke="#464F60" stroke-width="1.12" stroke-miterlimit="10" stroke-linecap="round" stroke-linejoin="round"/>
<path id="path21524" d="M364.466 63.68L360.466 56.16L389.586 14.56L407.506 -20.96L491.826 -7.99996L480.306 29.28L522.546 39.04L577.106 51.52L570.386 62.56L556.306 93.12L364.466 63.68Z" stroke="#464F60" stroke-width="1.12" stroke-miterlimit="10" stroke-linecap="round" stroke-linejoin="round"/>
<path id="path21538" d="M2.06616 555.04L313.906 603.04L293.106 644.8L263.186 717.44L11.8262 678.72L10.8662 655.52L3.02616 565.92L2.06616 555.04Z" stroke="#464F60" stroke-width="1.12" stroke-miterlimit="10" stroke-linecap="round" stroke-linejoin="round"/>
<path id="path21540" d="M11.8264 678.72L263.186 717.44L249.586 750.56L248.306 750.08L247.026 753.44L248.306 753.76L246.226 758.88L236.146 779.36L230.226 791.04L14.8664 758.08L14.7064 752.48L11.8264 678.72Z" stroke="#464F60" stroke-width="1.12" stroke-miterlimit="10" stroke-linecap="round" stroke-linejoin="round"/>
<path id="path21542" d="M230.226 791.04L204.786 842.56L204.146 842.24L202.706 845.44L203.186 845.6L151.986 948.8L15.506 953.6L18.706 890.88L19.346 875.84V875.68L14.866 758.08L230.226 791.04Z" stroke="#464F60" stroke-width="1.12" stroke-miterlimit="10" stroke-linecap="round" stroke-linejoin="round"/>
<path id="path21820" d="M17.2658 1114.56L-140.814 1126.24L-133.614 1022.72L16.1458 1011.68L17.2658 1114.56Z" stroke="#464F60" stroke-width="1.12" stroke-miterlimit="10" stroke-linecap="round" stroke-linejoin="round"/>
<path id="path21822" d="M16.146 1011.68L-133.614 1022.72L-125.294 901.6L18.706 890.88L15.506 953.6L16.146 1011.68Z" stroke="#464F60" stroke-width="1.12" stroke-miterlimit="10" stroke-linecap="round" stroke-linejoin="round"/>
<path id="path21824" d="M18.7063 890.88L-125.294 901.6L-115.534 762.08L14.7063 752.48L14.8663 758.08L19.3463 875.68V875.84L18.7063 890.88Z" stroke="#464F60" stroke-width="1.12" stroke-miterlimit="10" stroke-linecap="round" stroke-linejoin="round"/>
<path id="path21826" d="M14.706 752.48L-115.534 762.08L-102.574 573.76L3.02605 565.92L10.866 655.52L11.826 678.72L14.706 752.48Z" stroke="#464F60" stroke-width="1.12" stroke-miterlimit="10" stroke-linecap="round" stroke-linejoin="round"/>
<path id="path21828" d="M-102.574 573.76L-91.854 420.16L-49.614 418.88L-32.014 424.96L-18.414 440.16L-6.09399 462.4L2.06601 555.04L3.02601 565.92L-102.574 573.76Z" stroke="#464F60" stroke-width="1.12" stroke-miterlimit="10" stroke-linecap="round" stroke-linejoin="round"/>
<path id="path21836" d="M522.546 39.0402L480.306 29.2802L491.826 -7.99984L507.986 -59.8398L554.226 -52.4798L522.546 39.0402Z" stroke="#464F60" stroke-width="1.12" stroke-miterlimit="10" stroke-linecap="round" stroke-linejoin="round"/>
<path id="path21838" d="M522.546 39.04L554.226 -52.48L613.746 -43.2L621.586 -28.16L615.826 -12L577.106 51.52L522.546 39.04Z" stroke="#464F60" stroke-width="1.12" stroke-miterlimit="10" stroke-linecap="round" stroke-linejoin="round"/>
<path id="path21918" d="M19.1862 1208.48L-147.374 1220.8L-140.814 1126.24L17.2662 1114.56L17.5862 1137.12L29.7462 1167.84L32.1462 1172.96L31.6662 1185.76L27.0262 1197.12L19.1862 1208.48Z" stroke="#464F60" stroke-width="1.12" stroke-miterlimit="10" stroke-linecap="round" stroke-linejoin="round"/>
<path id="path21928" d="M-30.4138 1328.48L-155.374 1337.76L-147.374 1220.8L19.1862 1208.48L18.0662 1210.24L-1.77378 1233.44L-8.97378 1244.8L-16.9738 1268L-25.9338 1273.12L-25.4538 1284.96L-30.2538 1327.52L-30.4138 1328.48Z" stroke="#464F60" stroke-width="1.12" stroke-miterlimit="10" stroke-linecap="round" stroke-linejoin="round"/>
</g>
<g id="4">
<path id="Vector 1" d="M155.333 1076.5V1055.5L192.833 956.5L399.833 524L656.333 0.5L827.333 49L819.333 89L783.833 250.5L774.333 363.5L746.833 481L714.333 684.5L640.333 948.5L546.333 1181.5L155.333 1076.5Z" fill="#D2ECD2"/>
<path id="path21676" d="M223.026 1539.36L222.546 1552.48H195.186L10.866 1594.88L21.746 1570.88L29.586 1547.68L223.026 1539.36Z" stroke="#464F60" stroke-width="1.12" stroke-miterlimit="10" stroke-linecap="round" stroke-linejoin="round"/>
<path id="path21678" d="M223.026 1539.36L29.5862 1547.68L42.5462 1508.48L67.8262 1454.88L226.706 1448L225.426 1475.84L223.026 1539.36Z" stroke="#464F60" stroke-width="1.12" stroke-miterlimit="10" stroke-linecap="round" stroke-linejoin="round"/>
<path id="path21680" d="M226.706 1448L67.8264 1454.88L78.0664 1433.28L85.2664 1411.84L85.7464 1410.24L229.426 1404.16L228.306 1412.16L226.706 1448Z" stroke="#464F60" stroke-width="1.12" stroke-miterlimit="10" stroke-linecap="round" stroke-linejoin="round"/>
<path id="path21682" d="M229.426 1404.16L85.7463 1410.24L91.1863 1391.84L93.1063 1292.48V1263.68L250.226 1256.96L243.346 1330.4V1353.92L236.306 1359.2L229.426 1404.16Z" stroke="#464F60" stroke-width="1.12" stroke-miterlimit="10" stroke-linecap="round" stroke-linejoin="round"/>
<path id="path21684" d="M250.226 1256.96L93.1062 1263.68V1240.48L108.786 1168.16L222.066 1161.76L258.866 1163.36L250.226 1256.96Z" stroke="#464F60" stroke-width="1.12" stroke-miterlimit="10" stroke-linecap="round" stroke-linejoin="round"/>
<path id="path21686" d="M298.386 1148H293.586L258.226 1153.76L222.066 1152.32L112.466 1158.56L137.586 1091.2L139.666 1086.72L298.386 1148Z" stroke="#464F60" stroke-width="1.12" stroke-miterlimit="10" stroke-linecap="round" stroke-linejoin="round"/>
<path id="path21688" d="M298.386 1148L139.666 1086.72L159.346 1046.88L194.226 999.04L198.066 987.2L390.386 1061.44L349.746 1156.64L336.946 1148H298.386Z" stroke="#464F60" stroke-width="1.12" stroke-miterlimit="10" stroke-linecap="round" stroke-linejoin="round"/>
<path id="path21690" d="M390.386 1061.44L198.066 987.2L198.546 985.92L243.506 880.32L435.826 954.56L390.386 1061.44Z" stroke="#464F60" stroke-width="1.12" stroke-miterlimit="10" stroke-linecap="round" stroke-linejoin="round"/>
<path id="path21692" d="M435.826 954.56L243.506 880.32L287.346 777.76L479.666 852L435.826 954.56Z" stroke="#464F60" stroke-width="1.12" stroke-miterlimit="10" stroke-linecap="round" stroke-linejoin="round"/>
<path id="path21694" d="M479.666 852L287.346 777.76L323.826 692.32L511.666 764.64L508.946 773.76L508.466 784.32L479.666 852Z" stroke="#464F60" stroke-width="1.12" stroke-miterlimit="10" stroke-linecap="round" stroke-linejoin="round"/>
<path id="path21696" d="M511.666 764.64L323.826 692.32L358.866 610.24L552.306 684.8L534.226 724L527.026 740.64L516.466 749.12L511.666 764.64Z" stroke="#464F60" stroke-width="1.12" stroke-miterlimit="10" stroke-linecap="round" stroke-linejoin="round"/>
<path id="path21698" d="M552.306 684.8L358.866 610.24L366.706 591.84L397.426 529.28L589.906 603.52L552.306 684.8Z" stroke="#464F60" stroke-width="1.12" stroke-miterlimit="10" stroke-linecap="round" stroke-linejoin="round"/>
<path id="path21700" d="M589.906 603.52L397.426 529.28L440.146 442.24L630.546 515.68L589.906 603.52Z" stroke="#464F60" stroke-width="1.12" stroke-miterlimit="10" stroke-linecap="round" stroke-linejoin="round"/>
<path id="path21702" d="M630.546 515.68L440.146 442.24L486.386 347.68L674.706 420.32L630.546 515.68Z" stroke="#464F60" stroke-width="1.12" stroke-miterlimit="10" stroke-linecap="round" stroke-linejoin="round"/>
<path id="path21704" d="M674.706 420.32L486.386 347.68L535.186 248.48L720.946 320.16L674.706 420.32Z" stroke="#464F60" stroke-width="1.12" stroke-miterlimit="10" stroke-linecap="round" stroke-linejoin="round"/>
<path id="path21706" d="M720.946 320.16L535.186 248.48L575.506 166.08L584.786 147.84L767.986 218.56L720.946 320.16Z" stroke="#464F60" stroke-width="1.12" stroke-miterlimit="10" stroke-linecap="round" stroke-linejoin="round"/>
<path id="path21708" d="M767.986 218.56L584.786 147.84L619.186 80.4802L632.626 46.2402L815.186 116.64L767.986 218.56Z" stroke="#464F60" stroke-width="1.12" stroke-miterlimit="10" stroke-linecap="round" stroke-linejoin="round"/>
<path id="path21710" d="M632.626 46.2398L646.386 11.5198L656.946 7.83984L705.106 25.9198L833.106 46.8798L823.986 97.4398L815.186 116.64L632.626 46.2398Z" stroke="#464F60" stroke-width="1.12" stroke-miterlimit="10" stroke-linecap="round" stroke-linejoin="round"/>
<path id="path21712" d="M652.146 491.36L791.986 189.12L780.626 269.44L775.986 380.96L743.346 499.2L739.666 525.12L652.146 491.36Z" stroke="#464F60" stroke-width="1.12" stroke-miterlimit="10" stroke-linecap="round" stroke-linejoin="round"/>
<path id="path21714" d="M652.147 491.36L739.667 525.12L734.867 558.72L736.627 667.36L735.667 749.12L737.107 769.28L555.987 699.52L652.147 491.36Z" stroke="#464F60" stroke-width="1.12" stroke-miterlimit="10" stroke-linecap="round" stroke-linejoin="round"/>
<path id="path21716" d="M555.986 699.52L737.106 769.28L739.026 799.2L737.586 863.04V893.76L719.666 919.2L717.426 948.16L486.706 859.2L507.186 811.52L507.026 813.44L525.906 837.92L553.426 834.24L569.426 821.92L592.146 785.92L605.266 757.6L593.106 730.24L572.306 717.92L550.546 721.76L542.706 728L555.986 699.52Z" stroke="#464F60" stroke-width="1.12" stroke-miterlimit="10" stroke-linecap="round" stroke-linejoin="round"/>
<path id="path21718" d="M486.706 859.2L717.426 948.16L716.466 961.76L721.106 984.96L712.626 1013.76L686.386 1067.36L438.706 971.84L486.706 859.2Z" stroke="#464F60" stroke-width="1.12" stroke-miterlimit="10" stroke-linecap="round" stroke-linejoin="round"/>
<path id="path21720" d="M438.706 971.84L686.386 1067.36L647.506 1147.2L636.466 1172.16L393.266 1078.4L438.706 971.84Z" stroke="#464F60" stroke-width="1.12" stroke-miterlimit="10" stroke-linecap="round" stroke-linejoin="round"/>
<path id="path21722" d="M393.266 1078.4L636.466 1172.16L625.586 1197.12L624.626 1219.84L618.066 1253.28L588.786 1245.28L548.786 1250.4L355.666 1175.84L353.906 1170.88L357.746 1162.08L393.266 1078.4Z" stroke="#464F60" stroke-width="1.12" stroke-miterlimit="10" stroke-linecap="round" stroke-linejoin="round"/>
<path id="path21724" d="M548.786 1250.4L507.826 1255.68L504.146 1256.16L452.306 1278.56L427.506 1267.52L372.466 1226.56L355.666 1175.84L548.786 1250.4Z" stroke="#464F60" stroke-width="1.12" stroke-miterlimit="10" stroke-linecap="round" stroke-linejoin="round"/>
<path id="path21796" d="M83.666 1239.52V1292.48L81.746 1390.24L76.306 1408.96L69.266 1429.76L33.746 1504.96L12.946 1567.36L2.86603 1595.84L1.42603 1563.84L1.90603 1539.68L8.30603 1510.88L17.746 1489.92L28.946 1456.32L37.266 1434.72L55.826 1407.84L65.266 1387.52V1364.32L62.866 1338.88L59.986 1308.64L64.786 1260L73.266 1236.8L83.666 1239.52Z" stroke="#464F60" stroke-width="1.12" stroke-miterlimit="10" stroke-linecap="round" stroke-linejoin="round"/>
<path id="path21830" d="M649.746 1304.96L706.386 1334.56L647.666 1375.36L623.666 1477.76L601.106 1460.32L591.666 1447.52L587.506 1437.12L649.746 1304.96Z" stroke="#464F60" stroke-width="1.12" stroke-miterlimit="10" stroke-linecap="round" stroke-linejoin="round"/>
<path id="path21832" d="M649.746 1304.96L587.506 1437.12L584.626 1430.08L561.906 1403.04L547.186 1388.96L525.426 1381.76L506.066 1376.16L485.746 1365.28L458.226 1360.96L507.826 1255.68L548.786 1250.4L588.786 1245.28L618.066 1253.28L622.386 1270.72L625.586 1289.76L643.186 1301.44L649.746 1304.96Z" stroke="#464F60" stroke-width="1.12" stroke-miterlimit="10" stroke-linecap="round" stroke-linejoin="round"/>
<path id="path21834" d="M507.826 1255.68L458.226 1360.96L450.386 1359.68L404.466 1370.08L395.506 1389.92L391.826 1403.04V1430.56L381.426 1449.44H362.386L358.706 1434.24V1406.88L372.786 1377.6L376.466 1357.28L395.826 1343.04L414.866 1338.4L428.306 1328.48L438.546 1322.24L440.146 1311.84L434.066 1304.32H422.706L411.346 1305.12L401.266 1300.96L398.866 1296.96L400.466 1289.76L404.306 1282.56L411.666 1276.48L427.506 1267.52L452.306 1278.56L504.146 1256.16L507.826 1255.68Z" stroke="#464F60" stroke-width="1.12" stroke-miterlimit="10" stroke-linecap="round" stroke-linejoin="round"/>
</g>
<g id="3">
<path id="path21726" d="M789.586 1204.64L770.706 1196.16L755.666 1155.52L752.306 1122.4L759.346 1089.28L767.826 1052.96L767.346 1028.32L762.226 1006.72V985.919L769.266 959.839L778.226 938.559L779.666 917.279L775.986 888.959L782.546 856.319L791.026 824.319L794.866 793.119L789.586 775.039L776.786 757.119L775.506 745.759L782.546 722.239L848.146 728.159L837.746 845.279L841.586 974.879L833.266 1123.52L803.826 1159.2L789.586 1204.64Z" stroke="#464F60" stroke-width="1.12" stroke-miterlimit="10" stroke-linecap="round" stroke-linejoin="round"/>
<path id="path21728" d="M1083.83 415.2L1015.35 406.56L1017.27 397.28L1022.07 371.04V355.68L1016.95 345.44L1018.39 308.48L1014.55 263.68L996.306 253.6L966.706 246.08L923.986 254.08L916.466 261.6L887.986 405.44L874.706 500.96L874.866 539.52L852.146 682.72L848.146 728.16L782.546 722.24L779.986 684.8L778.226 659.36L777.266 627.68L775.506 570.56L790.546 472.16L805.426 385.12L834.066 217.12L855.826 215.2L884.146 198.08L897.106 185.28L962.866 230.72L991.986 241.76L1044.95 261.76L1048.63 274.72L1061.27 286.24L1078.39 288.48L1091.03 298.88L1098.23 307.36L1102.39 320L1098.23 336.64L1089.27 340.8L1082.07 351.68L1094.71 373.28L1083.83 415.2Z" stroke="#464F60" stroke-width="1.12" stroke-miterlimit="10" stroke-linecap="round" stroke-linejoin="round"/>
<path id="path21840" d="M909.426 994.559L900.146 1028.8L884.146 1063.84L858.546 1112L840.626 1143.2L830.226 1178.24V1211.2L799.986 1209.44L789.586 1204.64L803.826 1159.2L833.266 1123.52L843.506 1111.04L850.386 987.199L909.426 994.559Z" stroke="#464F60" stroke-width="1.12" stroke-miterlimit="10" stroke-linecap="round" stroke-linejoin="round"/>
</g>
</g>
</g>
<defs>
<clipPath id="clip0_133_2">
<rect width="3497.33" height="5489.33" fill="white" transform="translate(3866.33 -344) rotate(90)"/>
</clipPath>
</defs>
</svg>
