<svg width="994" height="1774" viewBox="0 0 994 1774" fill="none" xmlns="http://www.w3.org/2000/svg">
<rect width="994" height="1774" fill="#1E1E1E"/>
<g id="&#208;&#161;&#208;&#176;&#208;&#180;&#208;&#184;-21.06.2022" clip-path="url(#clip0_133_2)">
<rect width="3497.33" height="5489.33" transform="translate(4237.33 -271) rotate(90)" fill="white"/>
<g id="g10">
<g id="5">
<path id="Vector 9" fill-rule="evenodd" clip-rule="evenodd" d="M269.706 599.56L269.226 585.64L270.186 564.52L272.426 551.08L274.666 538.6L276.906 537.96L285.866 520.68L294.986 510.76L304.106 507.72L310.986 507.56L330.986 513.48L350.986 521.64L364.106 525.96L370.826 527.56L378.026 528.52L384.746 528.68H392.266L406.186 526.28L412.106 522.76L431.946 501.64L473.226 435.08L492.906 424.36L510.506 412.84L531.306 403.24L572.746 393.8L601.386 388.84L622.826 387.88L644.586 389.32L651.146 386.92L663.146 350.76L678.506 305.16L715.466 300.68L722.826 298.28L728.906 293.96L739.466 283.08L741.226 276.68L745.386 262.76L745.706 248.2L746.666 219.88L751.946 184.2L756.266 170.76L761.226 165.8L780.106 158.28L782.186 151.4L782.986 108.04L785.866 86.2801L796.586 29.4801L798.986 24.8401L802.186 19.8801L807.306 18.1201L899.946 36.2001L941.226 46.4401L977.226 53.4801L924.906 182.28L871.626 297.16L815.466 408.68L789.386 456.84L784.746 470.28L771.946 498.12L748.426 546.28L729.706 588.2L720.266 609.8L697.706 657.8L666.826 718.92L650.186 753.16L633.706 787.88L617.546 822.44L596.106 867.72L570.186 919.24L558.986 937.64L541.386 967.72L527.146 1000.52L506.506 1046.28L487.946 1084.36L472.586 1116.84L448.746 1168.84L415.786 1240.04L399.786 1272.52L389.386 1291.72L382.506 1303.88L377.866 1306.92L370.826 1308.68L357.706 1304.68L348.586 1294.12L334.666 1278.6L331.626 1272.52L330.186 1265.32L328.426 1230.44L326.826 1152.04L326.986 1086.6L327.466 1058.92L325.386 1044.84L320.906 1039.24L301.066 1033L294.826 1029.8L292.586 1001.16L293.226 972.68L294.346 951.72L291.786 930.76L288.426 902.6L285.066 874.28V853.16L291.306 826.12L287.946 803.4L280.906 740.36L275.146 677L272.106 641.8L270.506 606.76L269.706 599.56Z" fill="#D2ECD2"/>
<path id="path21472" d="M324.266 1538.12L206.186 1546.92L215.626 1410.76L340.586 1401.48L337.706 1420.2L330.506 1466.12L317.226 1484.2V1514.44L329.386 1523.4L324.266 1538.12Z" stroke="#464F60" stroke-width="1.12" stroke-miterlimit="10" stroke-linecap="round" stroke-linejoin="round"/>
<path id="path21518" d="M868.107 294.761L720.427 272.041L706.987 251.561L876.107 277.641L868.107 294.761Z" stroke="#464F60" stroke-width="1.12" stroke-miterlimit="10" stroke-linecap="round" stroke-linejoin="round"/>
<path id="path21520" d="M876.106 277.64L706.986 251.56L698.826 239.24L698.506 196.2L703.466 191.88L901.546 222.28L876.106 277.64Z" stroke="#464F60" stroke-width="1.12" stroke-miterlimit="10" stroke-linecap="round" stroke-linejoin="round"/>
<path id="path21522" d="M901.546 222.281L703.466 191.881L738.026 162.441L741.706 148.841L735.466 136.681L927.306 166.121L901.546 222.281Z" stroke="#464F60" stroke-width="1.12" stroke-miterlimit="10" stroke-linecap="round" stroke-linejoin="round"/>
<path id="path21524" d="M735.466 136.681L731.466 129.161L760.586 87.5605L778.506 52.0405L862.826 65.0005L851.306 102.281L893.546 112.041L948.106 124.521L941.386 135.561L927.306 166.121L735.466 136.681Z" stroke="#464F60" stroke-width="1.12" stroke-miterlimit="10" stroke-linecap="round" stroke-linejoin="round"/>
<path id="path21538" d="M373.066 628.041L684.906 676.041L664.106 717.801L634.186 790.441L382.826 751.721L381.866 728.521L374.026 638.921L373.066 628.041Z" stroke="#464F60" stroke-width="1.12" stroke-miterlimit="10" stroke-linecap="round" stroke-linejoin="round"/>
<path id="path21540" d="M382.827 751.721L634.187 790.441L620.587 823.561L619.307 823.081L618.027 826.441L619.307 826.761L617.227 831.881L607.147 852.361L601.227 864.041L385.867 831.081L385.707 825.481L382.827 751.721Z" stroke="#464F60" stroke-width="1.12" stroke-miterlimit="10" stroke-linecap="round" stroke-linejoin="round"/>
<path id="path21542" d="M601.226 864.04L575.786 915.56L575.146 915.24L573.706 918.44L574.186 918.6L522.986 1021.8L386.506 1026.6L389.706 963.88L390.346 948.84V948.68L385.866 831.08L601.226 864.04Z" stroke="#464F60" stroke-width="1.12" stroke-miterlimit="10" stroke-linecap="round" stroke-linejoin="round"/>
<path id="path21674" d="M778.506 52.0405L791.786 25.9605L804.266 1.48047L878.986 13.1605L862.826 65.0005L778.506 52.0405Z" stroke="#464F60" stroke-width="1.12" stroke-miterlimit="10" stroke-linecap="round" stroke-linejoin="round"/>
<path id="path21804" d="M122.666 552.201L266.186 541.641L256.106 687.721L93.5464 699.721L106.986 636.841L120.106 556.041L122.666 552.201Z" stroke="#464F60" stroke-width="1.12" stroke-miterlimit="10" stroke-linecap="round" stroke-linejoin="round"/>
<path id="path21806" d="M93.5463 699.721L256.106 687.721L246.826 822.921L87.3063 833.801L86.1863 830.601L80.4263 816.521L86.1863 779.561L81.3863 751.721L92.2663 705.961L93.5463 699.721Z" stroke="#464F60" stroke-width="1.12" stroke-miterlimit="10" stroke-linecap="round" stroke-linejoin="round"/>
<path id="path21808" d="M51.3064 836.52L58.6664 820.2L62.0264 843.88L70.0264 861.8L86.1864 865.64L92.7464 847.72L87.3064 833.8L246.826 822.92L239.466 928.68L6.50635 945.96L9.54635 931.72L18.9863 904.36L34.6663 872.68L51.3064 836.52Z" stroke="#464F60" stroke-width="1.12" stroke-miterlimit="10" stroke-linecap="round" stroke-linejoin="round"/>
<path id="path21810" d="M23.1465 1041.64L232.746 1026.12L223.146 1163.72L94.3465 1173.32L92.9065 1158.28L87.7865 1135.88L83.3065 1118.44L72.1065 1103.08L46.8265 1070.28L26.1865 1045.64L23.1465 1041.64Z" stroke="#464F60" stroke-width="1.12" stroke-miterlimit="10" stroke-linecap="round" stroke-linejoin="round"/>
<path id="path21812" d="M94.3462 1173.32L223.146 1163.72L213.546 1304.2L99.9462 1312.52L94.6662 1177L94.3462 1173.32Z" stroke="#464F60" stroke-width="1.12" stroke-miterlimit="10" stroke-linecap="round" stroke-linejoin="round"/>
<path id="path21814" d="M99.9463 1312.52L213.546 1304.2L201.866 1472.36L131.146 1477.64L130.506 1471.88L112.586 1404.68L104.586 1353.64L100.266 1322.12L99.9463 1312.52Z" stroke="#464F60" stroke-width="1.12" stroke-miterlimit="10" stroke-linecap="round" stroke-linejoin="round"/>
<path id="path21816" d="M131.146 1477.64L201.866 1472.36L182.986 1745.8L152.746 1748.04L129.546 1633L124.426 1613.64L126.346 1588.52L129.546 1539.88L133.386 1496.36L131.146 1477.64Z" stroke="#464F60" stroke-width="1.12" stroke-miterlimit="10" stroke-linecap="round" stroke-linejoin="round"/>
<path id="path21818" d="M182.987 1745.8L181.067 1772.84L172.107 1773.32L160.267 1765.8L152.747 1748.2V1748.04L182.987 1745.8Z" stroke="#464F60" stroke-width="1.12" stroke-miterlimit="10" stroke-linecap="round" stroke-linejoin="round"/>
<path id="path21820" d="M388.266 1187.56L230.186 1199.24L237.386 1095.72L387.146 1084.68L388.266 1187.56Z" stroke="#464F60" stroke-width="1.12" stroke-miterlimit="10" stroke-linecap="round" stroke-linejoin="round"/>
<path id="path21822" d="M387.146 1084.68L237.386 1095.72L245.706 974.6L389.706 963.88L386.506 1026.6L387.146 1084.68Z" stroke="#464F60" stroke-width="1.12" stroke-miterlimit="10" stroke-linecap="round" stroke-linejoin="round"/>
<path id="path21824" d="M389.707 963.88L245.707 974.6L255.467 835.08L385.707 825.48L385.867 831.08L390.347 948.68V948.84L389.707 963.88Z" stroke="#464F60" stroke-width="1.12" stroke-miterlimit="10" stroke-linecap="round" stroke-linejoin="round"/>
<path id="path21826" d="M385.706 825.48L255.466 835.08L268.426 646.76L374.026 638.92L381.866 728.52L382.826 751.72L385.706 825.48Z" stroke="#464F60" stroke-width="1.12" stroke-miterlimit="10" stroke-linecap="round" stroke-linejoin="round"/>
<path id="path21828" d="M268.426 646.76L279.146 493.16L321.386 491.88L338.986 497.96L352.586 513.16L364.906 535.4L373.066 628.04L374.026 638.92L268.426 646.76Z" stroke="#464F60" stroke-width="1.12" stroke-miterlimit="10" stroke-linecap="round" stroke-linejoin="round"/>
<path id="path21836" d="M893.547 112.04L851.307 102.28L862.827 65.0002L878.987 13.1602L925.227 20.5202L893.547 112.04Z" stroke="#464F60" stroke-width="1.12" stroke-miterlimit="10" stroke-linecap="round" stroke-linejoin="round"/>
<path id="path21838" d="M893.546 112.041L925.226 20.5205L984.746 29.8005L992.586 44.8405L986.826 61.0005L948.106 124.521L893.546 112.041Z" stroke="#464F60" stroke-width="1.12" stroke-miterlimit="10" stroke-linecap="round" stroke-linejoin="round"/>
<path id="path21918" d="M390.186 1281.48L223.626 1293.8L230.186 1199.24L388.266 1187.56L388.586 1210.12L400.746 1240.84L403.146 1245.96L402.666 1258.76L398.026 1270.12L390.186 1281.48Z" stroke="#464F60" stroke-width="1.12" stroke-miterlimit="10" stroke-linecap="round" stroke-linejoin="round"/>
<path id="path21922" d="M122.667 552.2L130.987 539.88L141.067 526.28L158.667 522.28L190.667 518.44L251.307 497L268.907 493.48H269.547L266.187 541.64L122.667 552.2Z" stroke="#464F60" stroke-width="1.12" stroke-miterlimit="10" stroke-linecap="round" stroke-linejoin="round"/>
<path id="path21928" d="M340.586 1401.48L215.626 1410.76L223.626 1293.8L390.186 1281.48L389.066 1283.24L369.226 1306.44L362.026 1317.8L354.026 1341L345.066 1346.12L345.546 1357.96L340.746 1400.52L340.586 1401.48Z" stroke="#464F60" stroke-width="1.12" stroke-miterlimit="10" stroke-linecap="round" stroke-linejoin="round"/>
<path id="path21930" d="M324.266 1538.12L289.546 1637.16L191.466 1760.04L206.186 1546.92L324.266 1538.12Z" stroke="#464F60" stroke-width="1.12" stroke-miterlimit="10" stroke-linecap="round" stroke-linejoin="round"/>
<path id="path21932" d="M6.50639 945.96L239.466 928.68L232.746 1026.12L23.1464 1041.64L3.94639 1015.88L1.54639 984.2L3.46639 960.04L6.50639 945.96Z" stroke="#464F60" stroke-width="1.12" stroke-miterlimit="10" stroke-linecap="round" stroke-linejoin="round"/>
</g>
</g>
</g>
<defs>
<clipPath id="clip0_133_2">
<rect width="3497.33" height="5489.33" fill="white" transform="translate(4237.33 -271) rotate(90)"/>
</clipPath>
</defs>
</svg>
