<svg width="1120" height="1863" viewBox="0 0 1120 1863" fill="none" xmlns="http://www.w3.org/2000/svg">
<rect width="1120" height="1863" fill="#1E1E1E"/>
<g id="&#208;&#161;&#208;&#176;&#208;&#180;&#208;&#184;-21.06.2022" clip-path="url(#clip0_133_2)">
<rect width="3497.33" height="5489.33" transform="translate(5242.33 -454) rotate(90)" fill="white"/>
<g id="g10">
<g id="6">
<path id="Vector 10" fill-rule="evenodd" clip-rule="evenodd" d="M476.946 226.96L514.386 211.44L543.826 200.4L602.866 182.96L603.826 243.76L602.226 289.36L602.066 349.04L601.106 403.6L600.146 477.84L574.386 514.32L546.386 586L542.386 592.4L527.186 610L518.226 647.92L514.866 670.64L515.666 690.48L709.266 689.52L719.666 784.24L733.106 927.6L738.386 1017.84L739.666 1076.56L740.786 1153.52L742.226 1224.88L735.026 1305.84L730.546 1326.32L547.186 1338.64L533.586 1340.08L428.946 1346.48L373.266 1409.2L359.026 1433.84L347.666 1466.48L345.266 1482.96L343.346 1751.44L342.546 1805.04L322.226 1810.96L155.826 1842.96L79.5062 1846.16L67.8268 1830.64L57.7468 1744.72L50.8668 1665.04L49.1068 1581.52L47.6668 1527.76L50.3868 1425.68L50.5468 1417.36L52.6268 1344.56L50.3868 1319.12L41.4268 1255.76L41.2668 1068.88L41.4268 1058.48L51.1868 975.76L70.0668 936.4L85.5862 910.96L116.626 860.08L157.106 827.6L211.346 819.6L259.666 812.88L303.346 805.36L313.426 803.92L328.466 802.16L334.866 797.68L338.866 788.24L339.986 772.08L346.066 748.72L341.586 686L338.226 602.32L334.386 546.16L319.506 461.84L301.746 372.08L295.826 336.72L297.426 322.48L322.386 307.28L413.746 261.2L467.666 233.2L476.946 226.96Z" fill="#D2ECD2"/>
<path id="path21486" d="M475.346 238.161L545.906 225.521L554.546 369.201L453.746 386.161L431.346 260.881L475.346 238.161Z" stroke="#464F60" stroke-width="1.12" stroke-miterlimit="10" stroke-linecap="round" stroke-linejoin="round"/>
<path id="path21488" d="M453.746 386.16L554.546 369.2L563.026 508.72L478.066 522.96L453.746 386.16Z" stroke="#464F60" stroke-width="1.12" stroke-miterlimit="10" stroke-linecap="round" stroke-linejoin="round"/>
<path id="path21490" d="M478.066 522.961L563.026 508.721L563.666 519.921L574.386 540.721L576.946 570.481L522.066 606.641L511.186 646.801L505.266 674.961L478.066 522.961Z" stroke="#464F60" stroke-width="1.12" stroke-miterlimit="10" stroke-linecap="round" stroke-linejoin="round"/>
<path id="path21548" d="M287.346 438.321L283.506 387.761L289.746 335.281L388.146 283.441L422.706 265.521L446.546 398.961L287.346 438.321Z" stroke="#464F60" stroke-width="1.12" stroke-miterlimit="10" stroke-linecap="round" stroke-linejoin="round"/>
<path id="path21550" d="M287.346 438.32L446.546 398.96L454.706 444.24L290.866 484.72L287.346 438.32Z" stroke="#464F60" stroke-width="1.12" stroke-miterlimit="10" stroke-linecap="round" stroke-linejoin="round"/>
<path id="path21552" d="M290.866 484.72L454.706 444.24L475.986 562.64L310.226 603.6L292.306 503.28L290.866 484.72Z" stroke="#464F60" stroke-width="1.12" stroke-miterlimit="10" stroke-linecap="round" stroke-linejoin="round"/>
<path id="path21554" d="M310.226 603.601L475.986 562.641L496.626 678.161L500.146 701.041L334.866 741.841L310.226 603.601Z" stroke="#464F60" stroke-width="1.12" stroke-miterlimit="10" stroke-linecap="round" stroke-linejoin="round"/>
<path id="path21556" d="M500.146 701.041L513.746 788.241L512.946 813.201L505.266 829.041L493.906 839.121L467.986 851.281L387.026 890.961L366.386 898.001L347.026 809.521L334.866 741.841L500.146 701.041Z" stroke="#464F60" stroke-width="1.12" stroke-miterlimit="10" stroke-linecap="round" stroke-linejoin="round"/>
<path id="path21558" d="M703.986 634.16L626.066 639.76L626.706 639.12L679.506 587.44L700.626 581.84L703.986 634.16Z" stroke="#464F60" stroke-width="1.12" stroke-miterlimit="10" stroke-linecap="round" stroke-linejoin="round"/>
<path id="path21560" d="M703.986 634.16L710.066 730L516.466 744.08L505.906 676.56L513.746 693.2L526.866 707.44L547.186 710.32L563.986 705.04L596.466 677.52L626.066 639.76L703.986 634.16Z" stroke="#464F60" stroke-width="1.12" stroke-miterlimit="10" stroke-linecap="round" stroke-linejoin="round"/>
<path id="path21562" d="M710.066 730L711.826 758.8L727.186 925.36L526.066 940.08L533.106 935.76L576.306 908.24L549.106 835.12L519.666 820.72L522.226 815.6L523.186 787.6L516.466 744.08L710.066 730Z" stroke="#464F60" stroke-width="1.12" stroke-miterlimit="10" stroke-linecap="round" stroke-linejoin="round"/>
<path id="path21564" d="M727.186 925.36L730.546 962.32L730.226 988.08L511.826 1003.92L510.546 962L510.226 950.96V949.84L526.066 940.08L727.186 925.36Z" stroke="#464F60" stroke-width="1.12" stroke-miterlimit="10" stroke-linecap="round" stroke-linejoin="round"/>
<path id="path21566" d="M730.226 988.081L729.746 1013.2L512.626 1029.04L511.826 1003.92L730.226 988.081Z" stroke="#464F60" stroke-width="1.12" stroke-miterlimit="10" stroke-linecap="round" stroke-linejoin="round"/>
<path id="path21568" d="M729.746 1013.2L728.626 1072.4L514.386 1088.08L512.626 1029.04L729.746 1013.2Z" stroke="#464F60" stroke-width="1.12" stroke-miterlimit="10" stroke-linecap="round" stroke-linejoin="round"/>
<path id="path21570" d="M728.626 1072.4L728.146 1098.96L723.186 1223.6L519.026 1238.48L517.906 1201.84L515.346 1117.68L514.386 1088.08L728.626 1072.4Z" stroke="#464F60" stroke-width="1.12" stroke-miterlimit="10" stroke-linecap="round" stroke-linejoin="round"/>
<path id="path21572" d="M519.026 1238.48L723.186 1223.6L721.746 1257.2L722.066 1351.76L723.826 1458L716.946 1458.16L684.146 1437.36L630.546 1394.8L567.986 1354.8L521.746 1324.88L519.506 1256.4L519.026 1238.48Z" stroke="#464F60" stroke-width="1.12" stroke-miterlimit="10" stroke-linecap="round" stroke-linejoin="round"/>
<path id="path21574" d="M507.826 951.28L510.226 950.96L510.546 962L511.826 1003.92L512.626 1029.04L514.386 1088.08L515.346 1117.68L340.146 1147.12L338.866 1107.44L361.266 1108.4L359.186 1050.64L358.706 987.28L436.786 990.48L479.186 968.88L507.826 951.28Z" stroke="#464F60" stroke-width="1.12" stroke-miterlimit="10" stroke-linecap="round" stroke-linejoin="round"/>
<path id="path21576" d="M340.146 1147.12L515.346 1117.68L517.906 1201.84L519.026 1238.48L519.506 1256.4L344.466 1285.84L340.146 1147.12Z" stroke="#464F60" stroke-width="1.12" stroke-miterlimit="10" stroke-linecap="round" stroke-linejoin="round"/>
<path id="path21578" d="M519.506 1256.4L521.746 1324.88L506.546 1325.68L475.506 1323.76L448.466 1329.52L425.746 1345.04L408.306 1359.76L375.186 1396.56L349.746 1456.56L344.466 1285.84L519.506 1256.4Z" stroke="#464F60" stroke-width="1.12" stroke-miterlimit="10" stroke-linecap="round" stroke-linejoin="round"/>
<path id="path21580" d="M281.586 1830.64L218.866 1844.56L137.746 1856.72L87.9862 1861.52L59.0269 1858.48L58.3869 1827.44L56.7869 1813.36L324.626 1768.24L321.266 1819.28L301.266 1824.4L281.586 1830.64Z" stroke="#464F60" stroke-width="1.12" stroke-miterlimit="10" stroke-linecap="round" stroke-linejoin="round"/>
<path id="path21582" d="M324.626 1768.24L56.7867 1813.36L55.6667 1803.12L28.6267 1704.24L332.146 1653.2L331.826 1658.64L324.626 1768.24Z" stroke="#464F60" stroke-width="1.12" stroke-miterlimit="10" stroke-linecap="round" stroke-linejoin="round"/>
<path id="path21584" d="M332.146 1653.2L28.627 1704.24L24.947 1690.64L11.827 1632.88L6.38696 1606.16L338.066 1550.32L336.146 1589.2L332.146 1653.2Z" stroke="#464F60" stroke-width="1.12" stroke-miterlimit="10" stroke-linecap="round" stroke-linejoin="round"/>
<path id="path21586" d="M338.066 1550.32L6.38678 1606.16L0.946777 1579.28L17.9068 1517.2L18.2268 1513.52L340.306 1459.28L341.266 1490.96L338.066 1550.32Z" stroke="#464F60" stroke-width="1.12" stroke-miterlimit="10" stroke-linecap="round" stroke-linejoin="round"/>
<path id="path21588" d="M340.306 1459.28L18.2268 1513.52L24.7868 1435.44L338.066 1382.8L340.306 1456.88V1459.28Z" stroke="#464F60" stroke-width="1.12" stroke-miterlimit="10" stroke-linecap="round" stroke-linejoin="round"/>
<path id="path21590" d="M338.066 1382.8L24.7869 1435.44L31.1869 1356.88L335.666 1305.68L338.066 1382.8Z" stroke="#464F60" stroke-width="1.12" stroke-miterlimit="10" stroke-linecap="round" stroke-linejoin="round"/>
<path id="path21592" d="M335.666 1305.68L31.1868 1356.88L33.9068 1325.36L35.6668 1276.4L333.106 1226.48L335.666 1305.68Z" stroke="#464F60" stroke-width="1.12" stroke-miterlimit="10" stroke-linecap="round" stroke-linejoin="round"/>
<path id="path21594" d="M333.106 1226.48L35.6667 1276.4L38.7067 1194.8L330.706 1145.68L333.106 1226.48Z" stroke="#464F60" stroke-width="1.12" stroke-miterlimit="10" stroke-linecap="round" stroke-linejoin="round"/>
<path id="path21596" d="M330.706 1145.68L38.7068 1194.8L40.4668 1148.24L42.3868 1111.12L325.906 1063.44L326.066 1068.24L329.426 1107.92L330.706 1145.68Z" stroke="#464F60" stroke-width="1.12" stroke-miterlimit="10" stroke-linecap="round" stroke-linejoin="round"/>
<path id="path21598" d="M325.906 1063.44L42.387 1111.12L46.707 1025.04L324.306 978.32L325.906 1063.44Z" stroke="#464F60" stroke-width="1.12" stroke-miterlimit="10" stroke-linecap="round" stroke-linejoin="round"/>
<path id="path21600" d="M324.306 978.321L46.7068 1025.04L49.9068 962.001L131.186 928.881L272.146 886.641L322.546 880.561L324.306 978.321Z" stroke="#464F60" stroke-width="1.12" stroke-miterlimit="10" stroke-linecap="round" stroke-linejoin="round"/>
<path id="path21644" d="M884.626 1607.28L876.626 1663.12L851.986 1734L821.906 1738L843.026 1452.08L852.946 1450L886.066 1544.56L884.626 1607.28Z" stroke="#464F60" stroke-width="1.12" stroke-miterlimit="10" stroke-linecap="round" stroke-linejoin="round"/>
<path id="path21646" d="M843.026 1452.08L821.906 1738L774.386 1744.4L795.186 1462.32L843.026 1452.08Z" stroke="#464F60" stroke-width="1.12" stroke-miterlimit="10" stroke-linecap="round" stroke-linejoin="round"/>
<path id="path21652" d="M691.826 1457.84L669.586 1758.64L646.066 1761.84L591.666 1771.12L618.866 1402L645.586 1421.2L674.866 1447.12L691.826 1457.84Z" stroke="#464F60" stroke-width="1.12" stroke-miterlimit="10" stroke-linecap="round" stroke-linejoin="round"/>
<path id="path21654" d="M618.866 1402L591.666 1771.12L540.146 1779.76L510.226 1784.88L542.386 1349.68L549.746 1354.32L599.186 1388.08L618.866 1402Z" stroke="#464F60" stroke-width="1.12" stroke-miterlimit="10" stroke-linecap="round" stroke-linejoin="round"/>
<path id="path21656" d="M542.386 1349.68L510.226 1784.88L382.546 1806.8L399.186 1582.96L488.466 1571.76L498.066 1570.48L504.786 1509.52L512.306 1463.76L522.706 1374.32L522.226 1336.56L542.386 1349.68Z" stroke="#464F60" stroke-width="1.12" stroke-miterlimit="10" stroke-linecap="round" stroke-linejoin="round"/>
<path id="path21658" d="M382.546 1806.8L344.466 1813.36L335.026 1815.76L330.866 1816.88L341.266 1658.8L345.586 1589.68L399.186 1582.96L382.546 1806.8Z" stroke="#464F60" stroke-width="1.12" stroke-miterlimit="10" stroke-linecap="round" stroke-linejoin="round"/>
<path id="path21660" d="M669.746 458.16L819.506 450.32L822.706 568.24L778.386 560.72L709.906 579.28L700.626 581.84L679.506 587.44L681.266 545.52L681.586 507.44L668.626 488.56L669.746 458.16Z" stroke="#464F60" stroke-width="1.12" stroke-miterlimit="10" stroke-linecap="round" stroke-linejoin="round"/>
<path id="path21662" d="M669.746 458.16L671.186 421.52L677.906 365.2L690.226 325.84L716.466 318.32L745.586 315.92L752.626 359.76L767.186 375.6L803.506 377.52L817.586 373.36L819.506 450.32L669.746 458.16Z" stroke="#464F60" stroke-width="1.12" stroke-miterlimit="10" stroke-linecap="round" stroke-linejoin="round"/>
<path id="path21664" d="M907.826 146.64L923.506 105.04L927.506 16.7204L942.706 6.16035L967.346 3.12035L986.066 1.36035L1003.99 121.04L1004.79 141.68L907.826 146.64Z" stroke="#464F60" stroke-width="1.12" stroke-miterlimit="10" stroke-linecap="round" stroke-linejoin="round"/>
<path id="path21666" d="M907.826 146.641L1004.79 141.681L1007.35 208.241L1001.75 279.601L992.466 355.921L839.826 363.761L850.066 330.641L864.466 218.641L904.946 154.801L907.826 146.641Z" stroke="#464F60" stroke-width="1.12" stroke-miterlimit="10" stroke-linecap="round" stroke-linejoin="round"/>
<path id="path21668" d="M839.826 363.76L992.466 355.92L985.266 413.68L979.506 511.44L966.706 528.72L960.306 545.04L961.266 567.6L833.106 574.32L832.146 567.44L826.866 370.48L838.866 366.96L839.826 363.76Z" stroke="#464F60" stroke-width="1.12" stroke-miterlimit="10" stroke-linecap="round" stroke-linejoin="round"/>
<path id="path21670" d="M833.106 574.321L961.266 567.601L967.186 694.481L959.826 750.161V793.681L970.066 833.041L859.666 838.801L859.506 829.041L852.306 754.001L843.986 650.961L833.106 574.321Z" stroke="#464F60" stroke-width="1.12" stroke-miterlimit="10" stroke-linecap="round" stroke-linejoin="round"/>
<path id="path21672" d="M970.066 833.041L973.746 847.121L940.786 900.881L925.746 931.601L930.386 974.161L938.546 1017.2L947.986 1084.56L951.666 1199.6L860.466 1206L859.346 1138.48L865.266 1061.68L860.466 957.361L859.666 838.801L970.066 833.041Z" stroke="#464F60" stroke-width="1.12" stroke-miterlimit="10" stroke-linecap="round" stroke-linejoin="round"/>
<path id="path21800" d="M503.506 1456.88L372.626 1470.32L373.426 1465.04V1460.4L371.026 1455.6L366.226 1453.84L359.186 1454.64L354.866 1455.6L349.746 1456.56L375.186 1396.56L408.306 1359.76L425.746 1345.04L448.466 1329.52L475.506 1323.76L506.546 1325.68L513.266 1327.28L512.786 1336.88L513.266 1373.84L503.506 1456.88Z" stroke="#464F60" stroke-width="1.12" stroke-miterlimit="10" stroke-linecap="round" stroke-linejoin="round"/>
<path id="path31986" d="M824.306 580.4L848.466 828.4V1278.96L1060.79 1264.88L1086.71 1364.4L1040.47 1319.6L969.586 1278L929.586 1532.4L1035.51 1536.56L1030.71 1566.16L1019.99 1583.6L925.266 1567.76L895.826 1541.2L863.026 1448.08L852.466 1451.76L885.266 1544.56L883.986 1614.32L876.146 1665.36L850.226 1739.28L774.866 1744.4L794.866 1463.44L793.426 1440.4L776.306 1444.4L736.306 1453.68L740.626 975.28L711.826 586.64L781.106 569.36L824.306 580.4Z" stroke="#464F60" stroke-width="0.8" stroke-miterlimit="10" stroke-linecap="round" stroke-linejoin="round"/>
<path id="path32000" d="M1086.71 1364.4L1118.87 1486.8L1105.91 1540.72L1046.87 1537.2L1035.51 1536.56L1040.47 1319.6L1086.71 1364.4Z" stroke="#464F60" stroke-width="0.8" stroke-miterlimit="10" stroke-linecap="round" stroke-linejoin="round"/>
<path id="path32002" d="M1035.51 1536.56L929.586 1532.4L969.586 1278L1040.47 1319.6L1035.51 1536.56Z" stroke="#464F60" stroke-width="0.8" stroke-miterlimit="10" stroke-linecap="round" stroke-linejoin="round"/>
<path id="path32004" d="M1105.91 1540.72L1091.83 1600.24L1039.67 1662.64L967.186 1741.52L928.946 1770.16L892.786 1736.4L870.706 1737.52L944.946 1691.76L973.266 1665.36L1006.07 1611.44L1040.15 1569.84L1046.87 1537.2L1105.91 1540.72Z" stroke="#464F60" stroke-width="0.8" stroke-miterlimit="10" stroke-linecap="round" stroke-linejoin="round"/>
<path id="path32006" d="M850.226 1739.28L870.706 1737.52L944.946 1691.76L973.266 1665.36L1006.07 1611.44L1040.15 1569.84L1046.87 1537.2L1035.51 1536.56L1030.71 1566.16L1019.99 1583.6L925.266 1567.76L895.826 1541.2L863.026 1448.08L852.466 1451.76L885.266 1544.56L883.986 1614.32L876.146 1665.36L850.226 1739.28Z" stroke="#464F60" stroke-width="0.8" stroke-miterlimit="10" stroke-linecap="round" stroke-linejoin="round"/>
<path id="path32010" d="M780.786 1465.36L776.306 1444.4L793.426 1440.4L794.866 1463.44L780.786 1465.36Z" stroke="#464F60" stroke-width="0.8" stroke-miterlimit="10" stroke-linecap="round" stroke-linejoin="round"/>
<path id="path32012" d="M926.386 1209.84L926.866 1263.6L868.466 1266.32L860.786 1258.16L860.946 1214.32L926.386 1209.84Z" stroke="#464F60" stroke-width="0.8" stroke-miterlimit="10" stroke-linecap="round" stroke-linejoin="round"/>
<path id="path32016" d="M1039.67 1662.64L1036.79 1683.28L1054.87 1734.96L1119.19 1662.64L1093.43 1598.16L1091.83 1600.24L1039.67 1662.64Z" stroke="#464F60" stroke-width="0.8" stroke-miterlimit="10" stroke-linecap="round" stroke-linejoin="round"/>
<path id="path21802" d="M503.506 1456.88L502.866 1462.32L495.346 1508.24L489.586 1562L488.466 1571.76L399.186 1582.96L345.586 1589.68L350.706 1491.12L360.626 1486.32L366.706 1480.24L372.466 1472.72L372.626 1470.32L503.506 1456.88Z" stroke="#464F60" stroke-width="1.12" stroke-miterlimit="10" stroke-linecap="round" stroke-linejoin="round"/>
<path id="path21648" d="M795.186 1462.32L774.386 1744.4L759.986 1746.48L780.786 1465.36L795.186 1462.32Z" stroke="#464F60" stroke-width="1.12" stroke-miterlimit="10" stroke-linecap="round" stroke-linejoin="round"/>
<path id="path21650" d="M780.786 1465.36L759.986 1746.48L669.586 1758.64L691.826 1457.84L707.026 1467.44L723.026 1473.68L748.946 1472.24L780.786 1465.36Z" stroke="#464F60" stroke-width="1.12" stroke-miterlimit="10" stroke-linecap="round" stroke-linejoin="round"/>
</g>
</g>
</g>
<defs>
<clipPath id="clip0_133_2">
<rect width="3497.33" height="5489.33" fill="white" transform="translate(5242.33 -454) rotate(90)"/>
</clipPath>
</defs>
</svg>
