<svg width="1632" height="913" viewBox="0 0 1632 913" fill="none" xmlns="http://www.w3.org/2000/svg">
<rect width="1632" height="913" fill="#1E1E1E"/>
<g id="&#208;&#161;&#208;&#176;&#208;&#180;&#208;&#184;-21.06.2022" clip-path="url(#clip0_133_2)">
<rect width="3497.33" height="5489.33" transform="translate(3663.33 -2495) rotate(90)" fill="white"/>
<g id="g10">
<g id="&#208;&#190;&#208;&#183;&#208;&#181;&#209;&#128;&#208;&#176;">
<path id="path324" fill-rule="evenodd" clip-rule="evenodd" d="M1153.26 808.52L1158.22 823.24L1159.66 839.56L1157.74 858.76L1152.3 862.6L1140.46 866.6L1113.9 869.96L1093.26 867.56L1072.62 861.16L1062.38 859.24H1059.34L1055.02 861.16L1047.5 869L1040.62 874.92L1016.62 883.88L1009.74 883.24L1006.22 880.84L998.863 846.92V813.48L1001.26 805.32L1006.38 799.56L1012.14 795.72L1040.62 788.84L1066.86 787.88L1086.06 791.88L1096.3 799.24L1106.06 803.08L1115.02 804.2L1130.7 802.6L1145.42 803.56L1151.34 805.16L1153.26 808.52Z" fill="#C1FFFF"/>
<path id="path336" fill-rule="evenodd" clip-rule="evenodd" d="M973.423 813.8L976.303 822.6L981.743 882.6L980.783 887.56L974.863 891.56L946.223 897.48L932.943 900.84L909.903 899.4L879.823 895.88L843.503 892.04L835.183 887.56L831.663 879.72V857.64L835.663 835.4L842.063 814.76L847.983 810.44L859.663 808.84L876.943 810.44L913.263 820.68L932.463 818.76L946.223 810.44L960.143 806.44L968.943 804.52L971.823 806.92L973.423 813.8Z" fill="#C1FFFF"/>
<path id="path348" fill-rule="evenodd" clip-rule="evenodd" d="M805.903 820.84L799.503 862.12L799.023 868.52L796.943 870.12L791.503 869.64L774.063 857.48L759.823 845.8L746.543 838.6L732.303 837.8L720.783 839.56L707.663 841L699.023 839.56L691.503 834.92L645.583 793.48L633.103 781.96L627.503 774.76L625.903 768.84L627.183 760.84L641.743 728.84L659.823 707.08L668.943 698.92L678.543 696.84L685.743 698.92L691.343 702.92L715.823 739.24L727.663 750.44L747.503 768.04L770.383 789.48L780.463 798.28L789.263 805.48L799.663 810.76L803.983 813.32L805.903 816.2V820.84Z" fill="#C1FFFF"/>
<path id="path360" fill-rule="evenodd" clip-rule="evenodd" d="M639.343 677.32V684.84L631.343 704.04L616.783 725.32L610.063 733.96L603.183 737.8L593.583 736.52L576.783 727.08L562.063 717.48L551.503 710.76L530.863 701.8L477.743 690.76L462.223 684.84L458.863 677L461.903 662.6L472.783 640.2L483.663 617.8L502.863 584.52L512.463 572.68L520.303 570.6L532.143 569.48L557.903 573L568.623 578.6L606.863 607.4L615.023 618.28L619.983 627.08L628.143 638.76L633.103 655.4L636.463 669.32L639.343 677.32Z" fill="#C1FFFF"/>
<path id="path372" fill-rule="evenodd" clip-rule="evenodd" d="M461.583 592.52L447.503 624.2L431.343 651.56L424.463 660.04L412.303 662.6L372.623 659.24L335.183 658.12L307.503 662.28L285.743 665.48L252.303 659.08L230.863 646.76L228.143 626.6L233.583 616.36L260.623 569.16L289.103 540.04L301.263 537L320.143 539.56L354.703 545L359.183 546.6L381.743 550.76L417.743 558.12L448.783 566.92L464.783 575.4L465.103 582.92L461.583 592.52Z" fill="#C1FFFF"/>
<path id="path384" fill-rule="evenodd" clip-rule="evenodd" d="M1187.5 793.48L1192.14 788.52L1196.46 786.92L1230.54 789.32L1261.42 797.64L1277.1 804.36L1287.18 806.76L1317.1 812.04L1343.66 817.8L1370.22 827.24L1379.81 831.08L1400.93 832.68L1414.21 834.6L1419.01 837.64L1423.33 844.2L1421.89 849.8L1416.77 854.92L1404.29 858.76L1390.69 859.88L1383.97 863.4L1377.41 868.2L1368.14 873.64L1355.18 875.56L1340.46 872.68L1312.3 863.72L1293.1 862.28L1272.94 856.36L1260.94 853.48L1243.66 848.2L1227.5 845.48L1215.98 846.12L1205.58 849L1198.7 852.2L1193.1 853.48L1190.54 850.6L1189.26 845.48L1187.82 813.48L1187.5 793.48Z" fill="#C1FFFF"/>
</g>
<g id="9">
<path id="Vector 5" d="M826.333 76.0001C826.028 73.5619 820.462 70.2366 818.333 70.0001C816.107 68.8872 814.969 67.7727 813.333 66.0002C810.953 63.4213 808.945 62.6373 806.333 60.5002C801.12 56.2346 796.019 54.1555 790.333 50.5002C780.63 44.2628 769.73 40.9199 760.833 34.0002C757.641 31.5179 754.333 29.0002 749.333 25.5002C741.6 22.6361 736.852 19.5108 729.833 15.5002C726.127 13.3824 719.86 8.69679 717.111 6.22235C714.75 4.09722 710.11 1.8576 707.111 0.777906C702.334 -0.941618 698.507 2.0171 693.833 3.05568C690.661 3.76069 684.435 5.68599 682.111 7.77791C678.685 10.8613 673.186 11.8684 669.278 14.5557C662.759 19.037 655.353 21.8751 648.833 26.389C636.849 34.6857 621.519 39.8517 608.444 46.389C592.233 54.4948 578.538 66.4474 562.333 75.0001C554.767 78.9933 547.836 84.1103 539.889 87.0001C532.167 89.8079 525.579 96.8053 517.889 99.2224C510.291 101.61 503.752 108.078 496.889 112C493.607 113.875 489.608 117.106 485.833 117.945C479.545 119.342 473.088 123.345 467.333 126.222C462.061 128.858 455.796 131.433 450.889 134.556C440.482 141.178 429.636 147.146 419.555 154C400.301 167.093 378.812 177.316 358.333 187.556C345.914 193.765 332.823 198.839 320.833 205.5C315.633 208.389 310.607 211.447 305.333 214.222C300.716 216.652 294.682 219.313 290.778 223C284.302 229.116 275.553 231.3 267.111 234.222C261.79 236.064 253.882 237.451 249.833 241.5C246.373 244.961 239.366 248.985 234.833 251C224.651 255.526 214.72 265.636 203.833 268.056C200.379 268.823 197.55 273.598 194.333 274C188.025 274.789 180.685 280.507 174.555 282.778C166.586 285.729 158.991 290.192 151.333 294.222C139.275 300.569 128.495 309.021 116.833 315.5C107.376 320.754 97.7437 323.81 88.8886 329.445C80.1327 335.017 73.4561 339.478 63.5553 342.778C62.6195 343.09 76.2584 354.555 78.1108 356.222C80.5413 358.41 86.7845 360.846 88.3331 363.556C89.2527 365.165 95.1078 369.983 96.8886 371C100.654 373.152 103.797 376.568 107.333 378.778C110.993 381.065 113.203 385.894 116.889 388C119.445 389.461 124.205 394.704 125.555 397C127.382 400.105 133.342 402.731 136.111 405.222C151.855 419.392 164.692 436.359 179.833 451.5C184.029 455.696 187.103 461.558 191.333 466C196.037 470.939 200.442 475.553 205.111 480.222C208.208 483.319 211.66 488.146 215.833 490C218.413 491.147 220.279 494.208 222.111 496.222C223.584 497.843 225.97 498.796 227.333 500.5C237.827 513.617 252.739 529.075 271.333 519.778C275.424 517.733 280.036 514 284.833 514C286.387 514 290.457 513.265 291.833 512.5C293.587 511.526 296.67 512.93 298.111 511.778C300.27 510.051 307.877 509.603 310.889 509.056C316.014 508.124 320.444 507 325.833 507C348.58 507 371.598 504.337 394.333 503C412.135 501.953 429.511 504.206 446.833 508.056C455.901 510.071 464.738 513.034 473.833 515.056C481.48 516.755 489.57 521 497.333 521C502.722 521 507.493 520 512.833 520C515.162 520 518.516 520.591 520.778 519.945C522.188 519.542 523.849 518.186 525.333 518C535.782 516.694 539.847 504.125 545.778 496.5C552.367 488.028 561.521 483.256 569.778 476.5C573.372 473.559 578.229 470.637 582.333 468.222C585.777 466.197 588.714 463.139 592.333 461.222C596.851 458.831 596.338 453.881 598.833 450C600.178 447.908 602.893 446.552 604.833 445C606.444 443.711 607.135 441.643 608.555 440.222C615.286 433.492 623.087 428.246 629.833 421.5C636.962 414.371 642.815 405.629 649.889 398.556C652.028 396.417 655.957 394.197 656.333 391C656.54 389.241 658.103 387.052 658.833 385.445C660.017 382.839 659.946 380.014 661.111 377.556C663.445 372.627 662.296 366.066 664.833 361.5C666.956 357.678 665.327 352.257 668.111 348.778C671.528 344.506 672.105 336.41 674.833 331.5C677.141 327.345 678.328 322.274 679.389 317.5C680.447 312.738 684.758 308.18 685.333 303C685.939 297.544 688.278 292.052 689.278 286.556C691.324 275.298 699.63 266.851 704.555 257C708.613 248.885 709.833 243 714.333 234.5C717.855 229.429 718.43 221.225 721.333 216C723.636 211.856 725.601 206.929 726.833 202C727.525 199.231 729.248 190.981 730.833 189C733.324 185.886 735.772 182.702 738.333 179.5C746.833 178.5 750.333 171.5 759.833 173.5C762.096 175.31 768.169 175.739 770.833 176.5C774.655 177.592 784.263 183.056 788.333 183.056C793.833 184 793.872 184.992 798.333 184C802.601 183.052 802.768 178.217 804.833 174.5C806.262 171.929 811.174 166.712 811.333 164C811.558 160.176 815.666 153.874 817.778 150.556C822.812 142.644 828.833 131 830.333 122.5C833.333 117 837.833 110.576 837.833 104C837.833 101.582 832.324 91.5932 830.333 90.0002C828.867 88.8274 826.614 78.2461 826.333 76.0001Z" fill="#D2ECD2"/>
<path id="path21492" d="M827.066 156.52L660.346 23.4L688.826 4.52002L833.466 87.08L859.546 94.92L827.066 156.52Z" stroke="#464F60" stroke-width="1.12" stroke-miterlimit="10" stroke-linecap="round" stroke-linejoin="round"/>
<path id="path21494" d="M827.066 156.52L820.666 168.84L794.586 171.24L787.866 167.72L769.146 157.96H756.346L744.026 164.2L741.306 169.96L737.946 176.84L736.026 195.88L747.866 212.84L732.666 233.8L550.266 88.0399L576.186 78.9199L660.346 23.3999L827.066 156.52Z" stroke="#464F60" stroke-width="1.12" stroke-miterlimit="10" stroke-linecap="round" stroke-linejoin="round"/>
<path id="path21496" d="M732.666 233.8L727.546 240.68L692.986 288.36L686.586 314.92L458.746 133L539.226 91.88L550.266 88.04L732.666 233.8Z" stroke="#464F60" stroke-width="1.12" stroke-miterlimit="10" stroke-linecap="round" stroke-linejoin="round"/>
<path id="path21500" d="M664.826 383.08L643.866 415.56L630.906 432.04L337.306 197.48L393.626 166.6L664.826 383.08Z" stroke="#464F60" stroke-width="1.12" stroke-miterlimit="10" stroke-linecap="round" stroke-linejoin="round"/>
<path id="path21504" d="M594.746 477.32L592.826 479.72L570.906 499.08L252.026 244.52L282.426 227.88L594.746 477.32Z" stroke="#464F60" stroke-width="1.12" stroke-miterlimit="10" stroke-linecap="round" stroke-linejoin="round"/>
<path id="path21506" d="M570.906 499.08L568.186 501.48L547.866 519.239L223.546 260.2L252.026 244.52L570.906 499.08Z" stroke="#464F60" stroke-width="1.12" stroke-miterlimit="10" stroke-linecap="round" stroke-linejoin="round"/>
<path id="path21510" d="M519.066 534.28L504.986 539.4L496.506 535.24L483.226 529L452.026 507.24L442.266 506.92L169.146 288.84L195.066 275.4L519.066 534.28Z" stroke="#464F60" stroke-width="1.12" stroke-miterlimit="10" stroke-linecap="round" stroke-linejoin="round"/>
<path id="path21516" d="M350.266 555.24L329.626 554.44L306.106 553.96L304.506 553.8L290.906 552.52L41.9463 353.64L50.2663 350.12L71.8663 339.56L76.9863 337L350.266 555.24Z" stroke="#464F60" stroke-width="1.12" stroke-miterlimit="10" stroke-linecap="round" stroke-linejoin="round"/>
<path id="path21778" d="M820.666 168.84L824.986 181L831.226 198.92L800.346 207.08L787.866 167.72L794.586 171.24L820.666 168.84Z" stroke="#464F60" stroke-width="1.12" stroke-miterlimit="10" stroke-linecap="round" stroke-linejoin="round"/>
<path id="path21780" d="M741.306 169.96L744.026 164.2L756.346 157.96H769.146L787.866 167.72L800.346 207.08L831.226 198.92L832.026 201L843.066 238.12L877.306 353.16L868.346 381.48L833.306 376.52L808.346 368.2L801.146 369.64L741.306 169.96Z" stroke="#464F60" stroke-width="1.12" stroke-miterlimit="10" stroke-linecap="round" stroke-linejoin="round"/>
<path id="path21782" d="M741.306 169.96L801.146 369.64L780.026 373.48L755.866 383.4L737.946 396.2L709.466 415.72L686.426 434.28L669.146 376.52L675.066 367.4L685.466 319.08L686.586 314.92L692.986 288.36L727.546 240.68L732.666 233.8L747.866 212.84L736.026 195.88L737.946 176.84L741.306 169.96Z" stroke="#464F60" stroke-width="1.12" stroke-miterlimit="10" stroke-linecap="round" stroke-linejoin="round"/>
<path id="path21784" d="M669.146 376.52L686.426 434.28L679.866 439.56L658.586 469.8L654.266 489.16L668.986 504.36L660.506 537.48L647.706 570.44L655.226 631.88L634.426 639.56L610.746 643.88L568.186 501.48L570.906 499.08L592.826 479.72L594.746 477.32L630.906 432.04L643.866 415.56L664.826 383.08L669.146 376.52Z" stroke="#464F60" stroke-width="1.12" stroke-miterlimit="10" stroke-linecap="round" stroke-linejoin="round"/>
<path id="path21786" d="M568.186 501.48L610.746 643.88L588.666 648.04L530.906 637.64L526.906 636.84L496.506 535.24L504.986 539.4L519.066 534.28L539.066 527.08L547.866 519.24L568.186 501.48Z" stroke="#464F60" stroke-width="1.12" stroke-miterlimit="10" stroke-linecap="round" stroke-linejoin="round"/>
<path id="path21788" d="M496.506 535.24L526.906 636.84L466.586 626.44L430.746 506.76L442.266 506.92L452.026 507.24L483.226 529L496.506 535.24Z" stroke="#464F60" stroke-width="1.12" stroke-miterlimit="10" stroke-linecap="round" stroke-linejoin="round"/>
<path id="path21790" d="M430.746 506.76L466.586 626.44L425.146 619.24H401.786L378.746 542.12L381.146 540.68L381.946 538.12L386.426 524.2L400.506 513.32L409.466 506.28L430.746 506.76Z" stroke="#464F60" stroke-width="1.12" stroke-miterlimit="10" stroke-linecap="round" stroke-linejoin="round"/>
<path id="path21792" d="M378.746 542.12L401.786 619.24H366.106L309.306 638.12L301.626 640.04L304.506 553.8L306.106 553.96L329.626 554.44L350.266 555.24L355.706 555.4L378.746 542.12Z" stroke="#464F60" stroke-width="1.12" stroke-miterlimit="10" stroke-linecap="round" stroke-linejoin="round"/>
<path id="path21794" d="M304.506 553.8L301.626 640.04L274.906 647.08L262.426 644.84L265.466 549.96L266.746 550.12L290.906 552.52L304.506 553.8Z" stroke="#464F60" stroke-width="1.12" stroke-miterlimit="10" stroke-linecap="round" stroke-linejoin="round"/>
<path id="path21798" d="M265.466 549.96L262.426 644.84L253.626 643.24L241.306 621.96L240.666 599.88L246.906 580.84L250.746 566.76L260.026 549.32L265.466 549.96Z" stroke="#464F60" stroke-width="1.12" stroke-miterlimit="10" stroke-linecap="round" stroke-linejoin="round"/>
<path id="path21940" d="M290.906 552.52L266.746 550.12L265.466 549.96L260.026 549.32L235.706 545.96L210.586 531.24L162.906 490.6L127.386 460.84L100.026 436.84L67.386 428.68L13.466 425L1.146 403.08L21.306 387.08L5.786 370.76L19.546 363.4L41.946 353.64L290.906 552.52Z" stroke="#464F60" stroke-width="1.12" stroke-miterlimit="10" stroke-linecap="round" stroke-linejoin="round"/>
<path id="path21942" d="M400.506 513.32L386.426 524.2L381.946 538.12L108.986 320.04L115.546 316.52L138.906 304.36L400.506 513.32Z" stroke="#464F60" stroke-width="1.12" stroke-miterlimit="10" stroke-linecap="round" stroke-linejoin="round"/>
<path id="path22666" d="M189.946 783.4L204.026 677.96L252.026 698.12L415.546 696.68L411.386 850.28L256.666 875.72L212.346 790.92L189.946 783.4Z" stroke="#464F60" stroke-width="1.12" stroke-miterlimit="10" stroke-linecap="round" stroke-linejoin="round"/>
<path id="path31750" d="M411.386 850.28L415.546 696.68L541.626 700.04L564.986 751.72L583.546 785.8L632.346 858.6L618.586 878.76L411.386 850.28Z" stroke="#464F60" stroke-width="1.12" stroke-miterlimit="10" stroke-linecap="round" stroke-linejoin="round"/>
<path id="path31764" d="M266.906 656.84L302.586 672.68L427.546 646.76L449.626 651.4L498.746 655.08L511.066 655.24L532.826 665L551.386 677.32L590.586 721.32L611.386 742.44L632.986 753.8L648.346 771.08L660.666 794.12L667.866 810.6L691.226 822.6L712.346 824.84L745.946 832.2L762.746 837.64L831.386 838.76L886.746 817.8L903.866 824.2L912.666 821.32L912.506 818.6L922.746 809.32L936.186 803.88L955.386 812.84L983.706 804.36L996.506 802.92L996.986 790.92L999.866 774.92L972.666 776.04L923.066 792.2L857.146 776.52L840.186 768.04L786.906 739.24L723.226 691.08L702.586 673.32L655.226 631.88L638.586 645L588.986 655.24L421.946 625.8L391.866 626.76L369.306 624.68L266.906 656.84Z" stroke="#464F60" stroke-width="0.8" stroke-miterlimit="10" stroke-linecap="round" stroke-linejoin="round"/>
<path id="path31766" d="M323.386 680.84L337.306 686.76L534.426 687.56L545.626 701.8L578.426 744.04L651.706 839.56L753.786 886.28L1079.23 884.84L1195.23 868.2L1614.26 911.72L1630.74 894.44L1605.94 878.76L1570.42 860.2L1557.14 860.52L1530.74 840.52L1508.02 838.6L1482.58 826.76L1438.58 863.88L1415.86 857.48L1398.42 861L1358.43 859.72L1340.83 849.64L1336.83 842.44L1337.15 828.52L1309.31 826.12L1293.63 827.4L1277.47 847.08L1269.79 852.04H1254.75L1192.83 835.24L1136.35 858.92L1118.59 858.44L1099.39 861.8L1080.67 862.76L1061.15 858.76L1045.31 853.96L1031.55 821.8L1007.23 814.28H1000.03L985.306 820.84L972.186 824.2L950.426 824.68L939.066 822.12L930.426 819.08L921.466 831.4L905.146 837.32L887.386 831.08L850.426 846.44L835.386 849.96L816.826 854.12L794.746 850.6L764.026 851.08L746.106 850.12L709.306 837.8L689.626 835.4L676.506 828.52L658.266 819.56L640.346 784.04L614.906 762.28L600.506 750.12L575.066 722.6L545.306 688.2L528.026 674.76L512.186 670.6L496.666 667.72L444.666 663.88L426.906 658.6L364.986 677.96L351.706 677.16L323.386 680.84Z" stroke="#464F60" stroke-width="0.8" stroke-miterlimit="10" stroke-linecap="round" stroke-linejoin="round"/>
<path id="path21498" d="M686.586 314.92L685.466 319.08L675.066 367.4L669.146 376.52L664.826 383.08L393.626 166.6L396.186 165.16L458.746 133L686.586 314.92Z" stroke="#464F60" stroke-width="1.12" stroke-miterlimit="10" stroke-linecap="round" stroke-linejoin="round"/>
<path id="path21502" d="M630.906 432.04L594.746 477.32L282.426 227.88L337.306 197.48L630.906 432.04Z" stroke="#464F60" stroke-width="1.12" stroke-miterlimit="10" stroke-linecap="round" stroke-linejoin="round"/>
<path id="path21508" d="M547.866 519.24L539.066 527.08L519.066 534.28L195.066 275.4L209.306 268.04L223.546 260.2L547.866 519.24Z" stroke="#464F60" stroke-width="1.12" stroke-miterlimit="10" stroke-linecap="round" stroke-linejoin="round"/>
<path id="path21512" d="M442.266 506.92L430.746 506.76L409.466 506.28L400.506 513.32L138.906 304.36L169.146 288.84L442.266 506.92Z" stroke="#464F60" stroke-width="1.12" stroke-miterlimit="10" stroke-linecap="round" stroke-linejoin="round"/>
<path id="path21514" d="M381.946 538.12L381.146 540.68L378.746 542.12L355.706 555.4L350.266 555.24L76.9863 337L108.986 320.04L381.946 538.12Z" stroke="#464F60" stroke-width="1.12" stroke-miterlimit="10" stroke-linecap="round" stroke-linejoin="round"/>
</g>
</g>
</g>
<defs>
<clipPath id="clip0_133_2">
<rect width="3497.33" height="5489.33" fill="white" transform="translate(3663.33 -2495) rotate(90)"/>
</clipPath>
</defs>
</svg>
